<svg enable-background="new 0 0 600 200" viewBox="0 0 600 200" xmlns="http://www.w3.org/2000/svg"><g fill="#fff"><path d="m89.4 35.5c1.6-.3 3.1-.4 4.3-.4 4 0 4.7 1.3 4.7 1.5 0 0 .2.3.5.3h.2c.1 0 .2-.1.3-.2s.1-.3 0-.4c0 0-1-2.6-5.1-3.1 0 0-2.3-.3-4.6.1-.6.1-.8 1.6-.8 1.6 0 .2 0 .3.1.4.1.2.4.2.4.2"/><path d="m82.5 37.2c-1-.4-3.2-.3-3.2-.3-3.5.1-4.5 2.3-4.5 2.3-.1.2-.1.4 0 .5s.3.2.3.2c.7.2.9-.4.9-.4s.2-.7 1.8-1.1h.1v.1c-.1.2-.1.4-.1.7 0 1 .8 1.8 1.8 1.8s1.8-.8 1.8-1.8c0-.2-.1-.5-.1-.7v-.1h.1c.6.2 1.1.7 1.4 1.2.1.2.3.3 1 .3.2 0 .4 0 .5-.1s0-.2 0-.2c-.6-1.8-1.7-2.4-1.8-2.4"/><path d="m89.3 40c.7 0 .9-.1 1-.3.3-.6.8-1 1.4-1.3h.1v.1c-.1.2-.1.5-.1.7 0 1 .8 1.8 1.8 1.8s1.8-.8 1.8-1.8c0-.2 0-.5-.1-.7v-.1h.1c1.5.4 1.7 1 1.8 1.1 0 .1.3.5.9.4.1 0 .3-.1.3-.2.1-.1.1-.3 0-.5 0 0-1-2.2-4.5-2.3-.2 0-2.3-.1-3.2.3 0 0-1.2.6-1.6 2.4v.2c-.1.2.1.2.3.2"/><path d="m73.7 36.9h.2c.4 0 .6-.3.6-.3 0-.1 1-2.4 9-1.1 0 0 .3.1.5-.1.1-.1.1-.2.1-.4 0-.1-.2-1.5-.9-1.6-.9-.2-1.8-.2-2.8-.2-1.1 0-1.8.1-1.8.1-4.2.5-5.1 3-5.1 3.1-.1.2-.1.4 0 .5 0-.1.2 0 .2 0"/><path d="m141.3 123.9c0-.3-.1-.6-.3-.8s-.4-.2-.7-.2c.2-.4.4-.8.5-1.3.7-1.9 1-4 1.1-6.4 0-.3-.1-.6-.4-.8-.2-.1-.4-.2-.7-.1.1-.4.3-.8.4-1.3.5-1.9.6-4.1.4-6.5 0-.3-.2-.6-.5-.7-.2-.1-.5-.1-.7-.1.1-.5.2-1 .3-1.5.3-2 .2-4.1-.2-6.5-.1-.3-.3-.5-.5-.7-.2-.1-.4-.1-.5 0 .1-.3.1-.7.2-1.1.2-2 0-4.2-.5-6.5-.1-.3-.3-.5-.6-.6s-.6-.1-.8.1c0 0 0 0-.1.1 0-.5.1-1.1 0-1.6-.1-2-.5-4.1-1.4-6.3-.1-.3-.4-.5-.7-.6s-.5 0-.8.2c0-.5-.1-1-.1-1.5-.3-2-.9-4-2-6.2-.1-.3-.4-.5-.7-.5s-.5.1-.7.2c-.1-.5-.2-.9-.3-1.4-.5-1.9-1.4-3.9-2.7-5.9-.2-.2-.5-.4-.8-.4s-.6.2-.7.4c-.2-.5-.4-1.1-.6-1.6-.8-1.8-2-3.6-3.7-5.4-.2-.2-.5-.3-.9-.3-.2.1-.4.2-.6.4-.3-.5-.5-1.1-.9-1.6-1.1-1.7-2.5-3.2-4.4-4.7-.2-.2-.6-.2-.9-.1-.2.1-.4.3-.5.5-1.1-1.6-2.7-2.7-4.7-3.5.3 0 .5 0 .7.1 2.6.2 4.5-.4 4.6-.4.6-.2 1-.8.9-1.5s-.6-1.1-1.3-1.2c-2.8-.1-3.9-.7-5.2-1.4-.1-.1-.3-.1-.4-.2l6.2-.9c.7-.1 1.1-.7 1.1-1.3 0-.7-.5-1.2-1.2-1.3l-5.9-.9c.7-.2 1.3-.4 1.9-.6 2.5-.9 4-2.1 4.1-2.1.5-.4.6-1.1.3-1.7s-1-.8-1.6-.6c-2.6 1-3.8.8-5.3.7-.1 0-.3 0-.4 0l5.4-3.2c.6-.3.8-1.1.5-1.7s-.9-1-1.6-.8l-5.8 1.5c.5-.4 1-.9 1.5-1.3 2-1.8 2.9-3.5 2.9-3.5.3-.6.2-1.3-.4-1.7-.5-.4-1.2-.4-1.7.1-2.1 1.9-3.2 2.2-4.7 2.7-.1 0-.3.1-.4.1l3.7-5c.4-.5.3-1.3-.1-1.8-.5-.5-1.2-.5-1.8-.1l-4.8 3.6c.3-.6.6-1.2.9-1.8 1.1-2.4 1.3-4.3 1.3-4.4.1-.7-.4-1.3-1-1.4-.6-.2-1.3.1-1.6.7-1.2 2.6-2.1 3.3-3.3 4.3-.1.1-.2.2-.3.2l1.5-6.1c.2-.6-.2-1.3-.8-1.6s-1.3 0-1.7.6l-3.1 5.2c.1-.7.1-1.4.2-2 .2-2.6-.4-4.5-.4-4.6-.2-.6-.8-1-1.5-.9-.6.1-1.1.6-1.2 1.3-.1 2.8-.7 3.9-1.4 5.2-.1.1-.1.2-.2.3l-.9-6.2c-.1-.7-.7-1.1-1.3-1.1-.7 0-1.2.5-1.3 1.2l-.8 5.9c-.2-.6-.4-1.3-.6-1.8-.9-2.5-2.1-4-2.1-4.1-.4-.5-1.1-.6-1.7-.3s-.8 1-.6 1.6c.9 2.7.8 3.9.7 5.4v.4l-3.2-5.4c-.3-.6-1.1-.8-1.7-.6-.6.3-.9.9-.8 1.6l1.5 5.8c-.4-.5-.8-1-1.2-1.5-1.7-1.9-3.3-2.8-3.5-2.9-.6-.3-1.3-.2-1.7.4-.4.5-.4 1.3.1 1.7 1.9 2.1 2.2 3.2 2.7 4.7 0 .1.1.3.1.4l-5-3.7c-.5-.4-1.3-.3-1.8.1-.5.5-.5 1.2-.1 1.8l3.6 4.8c-.6-.3-1.2-.6-1.8-.9-2.4-1.2-4.3-1.3-4.4-1.4-.6-.1-1.2.4-1.4 1s.1 1.3.7 1.6c2.5 1.2 3.3 2.1 4.3 3.3.1.1.2.2.3.3l-6.1-1.5c-.6-.2-1.3.2-1.6.8s0 1.3.6 1.7l5.2 3.1c-.7-.1-1.4-.1-2-.2-2.5-.3-4.3.3-4.4.3-.6.2-1 .8-.9 1.5s.6 1.1 1.3 1.2c2.8.1 3.9.7 5.2 1.4.1.1.2.1.3.2l-6.2.9c-.7.1-1.1.7-1.1 1.3 0 .7.5 1.2 1.1 1.3l6 .9c-.7.2-1.3.4-1.9.6-2.5.9-4 2.1-4.1 2.2-.5.4-.6 1.1-.3 1.7s1 .8 1.6.6c1.3-.5 2.4-.7 3.3-.8-1.7 1.5-2.5 2.3-2.8 2.8-.3.4-.5.7-.8 1.1-.1-.2-.3-.4-.5-.4-.3-.1-.6-.1-.8.1-1.9 1.5-3.4 3.1-4.5 4.7-.3.5-.6 1-.9 1.6-.1-.2-.4-.4-.6-.5-.3-.1-.6.1-.8.3-1.6 1.7-2.9 3.5-3.7 5.4-.2.5-.4 1-.6 1.5-.2-.2-.4-.3-.6-.3-.3 0-.6.1-.8.4-1.4 1.9-2.4 3.9-3 5.8-.2.5-.3 1.1-.4 1.6-.2-.2-.5-.4-.8-.3-.3 0-.6.2-.7.5-1.1 2.1-1.8 4.2-2.1 6.1-.1.5-.1 1-.1 1.5-.2-.2-.5-.3-.8-.2s-.5.3-.6.6c-.8 2.2-1.3 4.4-1.3 6.4 0 .5 0 1 .1 1.5-.2-.2-.5-.2-.8-.1s-.5.3-.6.6c-.5 2.3-.7 4.5-.5 6.5 0 .4.1.8.2 1.1-.2 0-.3 0-.4.1-.3.1-.5.4-.5.7-.4 2.3-.5 4.5-.2 6.5.1.5.2 1 .3 1.5-.2 0-.3 0-.4.1-.3.1-.5.4-.5.7-.3 2.4-.2 4.5.2 6.5.1.4.2.9.3 1.3-.2 0-.5 0-.6.1-.3.2-.4.4-.4.8 0 2.4.3 4.5.9 6.4.2.6.4 1.1.7 1.7-.1 0-.2-.1-.2-.1-.3-.1-.6 0-.8.2s-.3.5-.3.8c.4 2.3 1 4.4 2 6.2.2.4.4.7.6 1-.2 0-.3.1-.5.3s-.3.5-.2.8c.5 2.3 1.4 4.3 2.4 6 .3.4.6.8.9 1.2-.3 0-.5.1-.7.4-.2.2-.2.6-.1.9.8 2.2 1.9 4.2 3.1 5.7.3.4.6.7.9 1-.2.1-.5.2-.6.4-.2.3-.2.6 0 .9 1.1 2.1 2.3 3.9 3.8 5.3.3.3.7.6 1 .9-.2.1-.4.3-.5.5-.1.3-.1.6.1.9 1.3 2 2.7 3.6 4.3 4.9.5.4 1 .7 1.5 1-.2 0-.3.1-.3.1-.3.1-.5.3-.6.6s0 .6.2.8c1.6 1.7 3.3 3.1 5 4 1.4.8 2.8 1.3 4.1 1.6 1.1.2 2.3.2 3.3.1 3 2.1 6.2 3.9 9.4 5.3 2.7 1.1 5.4 2 8.2 2.6.4.1.8.2 1.2.2l.9.2c.6.2 1.2.3 1.5.4-.1.3-.1.6-.1.9s0 .6.1 1c-1 1-4.4 4-9.3 4.6h-.3l.1-.3c.2.3.6.9 1.4 1.6l.1.1h.1c4.4-.8 7.5-3.2 9-4.6.1.1.2.2.4.4-.3 1.3-1.7 4.2-6.7 5.6l-.5.2.5.2c.9.4 1.9.7 3 .8h.1.1c3.8-1.7 5.1-4.4 5.6-5.8.5.1 1 .1 1.5 0 .5 1.5 1.8 4.1 5.6 5.8h.1.1c1.1-.2 2.1-.4 3-.8l.5-.2-.5-.2c-5-1.4-6.3-4.3-6.7-5.6.1-.1.3-.2.4-.4 1.5 1.4 4.6 3.7 8.9 4.6h.1l.1-.1c.7-.7 1.2-1.3 1.3-1.6l.2-.3h-.3c-4.7-.6-8-3.4-9.3-4.6.1-.3.1-.7.1-1s0-.6-.1-.9c.5-.1 1-.2 1.4-.4l1.1-.2c1.3-.2 2.6-.5 3.8-.8 2.7-.7 5.5-1.8 8.1-3.1 3.7-1.8 6.2-3.7 6.9-4.2 1 .2 2.1.2 3.3-.1 1.4-.3 2.7-.8 4.1-1.6 1.7-1 3.4-2.3 5-4 .2-.2.3-.5.2-.8s-.3-.5-.6-.6c0 0-.1 0-.2-.1.5-.3 1.1-.7 1.6-1.1 1.6-1.2 3-2.9 4.3-4.9.2-.3.2-.6.1-.9-.1-.2-.3-.4-.5-.5.3-.3.7-.6 1-.9 1.4-1.4 2.7-3.2 3.8-5.3.1-.3.1-.6 0-.9-.2-.3-.4-.4-.7-.4.3-.3.7-.7 1-1.1 1.3-1.5 2.3-3.5 3.1-5.7.1-.3.1-.6-.1-.8s-.4-.4-.7-.4c0 0 0 0-.1 0 .3-.4.6-.7.8-1.1 1.1-1.7 2-3.7 2.5-6 .1-.3 0-.6-.2-.8s-.5-.3-.8-.3c.3-.4.5-.9.8-1.3.3-1.5.9-3.6 1.2-6m-1.1-7.4c.1 0 .1 0 0 0-.1 1.7-.4 3.2-.8 4.5-.5 1.3-1.1 2.5-2 3.5-1 1.1-2 1.8-2.4 2h-.1c-1.3-1.8-1.9-4-1.9-6.5 0-.8.1-1.6.3-2.4 0 0 0-.1.1-.1h.1c1.1 1.4 1.8 3.3 1.8 3.3.1.3.3.4.6.5.3 0 .5-.2.6-.4 1.1-2.3 2.6-3.7 3.7-4.4zm-.2-8.5s.1 0 0 0c.1 0 .1 0 .1.1 0 1.6-.1 3.1-.4 4.5s-.9 2.6-1.6 3.6c-.8 1.2-1.8 1.9-2.1 2.2 0 0 0 0-.1 0 0 0 0 0-.1 0-2.3-2.6-2.5-6.5-2.4-8.6 0 0 0-.1.1-.1h.1c1.2 1.3 2 3 2.1 3 .1.2.4.4.6.4.3 0 .5-.2.6-.4.8-2.3 2.1-3.8 3.1-4.7m-.9-8.6s.1 0 0 0c.1 0 .1 0 .1.1.2 1.6.2 3.1 0 4.5s-.6 2.7-1.2 3.8c-.7 1.3-1.6 2.1-2 2.4 0 0 0 0-.1 0 0 0 0 0-.1 0-2.3-1.9-3-6-3.2-8.3 0 0 0-.1.1-.1h.1c1.3 1.2 2.3 2.7 2.3 2.7.1.2.4.3.7.3s.5-.2.5-.5c.7-2.3 1.9-3.9 2.8-4.9m-1.3-8.1h.1c.3 1.6.3 3.1.2 4.5s-.5 2.7-1.1 3.8c-.7 1.3-1.5 2.2-1.8 2.5 0 0 0 0-.1 0 0 0 0 0-.1 0-1.9-1.6-2.8-4-3.2-5.7-.2-.8-.3-1.6-.4-2.4v-.1h.1c1.4 1.2 2.5 2.7 2.5 2.7.2.2.4.3.7.3.3-.1.5-.3.5-.5.6-2.4 1.7-4.1 2.6-5.1m-44.1 44.4c.1.3.3.5.5.6 2.8 1.4 5.1 4.2 6 5.4-.1.2-.2.5-.4.6-.5.5-1.1.8-2 .8h-.1c-.3-.6-.8-1.4-1.6-2.3-1-1.1-3-2.6-3.1-2.6-.5-.3-1.1-.2-1.4.2-.3.5-.2 1.1.2 1.4.5.4 2 1.5 2.7 2.3.8 1 1.2 1.6 1.3 1.8-.1.2-.3.5-.6.8-.5.5-1 .6-1.7.5-.3-.6-.9-1.9-2.1-3.3-.4-.4-1-.5-1.4-.1-.2.2-.3.4-.3.7s.1.5.3.7c.9 1 1.4 1.9 1.7 2.5-.2.2-.5.3-.7.4-.7.3-1.4.3-2.2.2.3-.5.5-1 .6-1.5.1-.6-.1-1.5-1-2.5-.5-.5-1.5-1-2.8-.7-.1-.7-.4-1.4-1.1-2-1-.9-2.2-1.1-3.5-.7 0 0 0 0-.1 0-.2-.5-.6-1.3-1.7-1.8-1-.5-2-.5-3.1-.2-.9-.8-2.2-1-2.5-1-1.5-.2-3.5.5-4.8 1.8-6.7 3.6-15.4 7.6-18.9 9.1s0 0 0 0c-1.9-3.5-3.4-7.3-4.7-11.2-.4-1.1-.7-2.3-1-3.4 9.9-1.1 17.8-2.3 23.6-3.5 6-1.2 9.9-2.4 11.8-3.7 2.3-1.6 3.9-2.4 6.2-2.3.7.1 1.3.1 1.9.2-.6.2-1.1.5-1.6.8-.9.6-1.5 1.1-2 1.5s-.9.7-1.6 1.2c-.4.3-1 .6-1.6.9-1.3.7-2.4 1.2-2.7 2-.3 1-.2 1.8.4 2.7 1 1.4 2.6 1.3 4 1.2 1.5-.1 3.3-.6 4.7-1.4.5-.3.9-.6 1.3-.8.6-.4 1.1-.7 1.5-.8h.1c1.2-.3 2.6-.2 4.2.4 1.4.6 2.8 1.4 4.1 2.3 3.1 2 5.4 4.8 6.1 5.6-.1.3-.2.9-.6 1.2-.4.4-1 .6-1.7.6-.9-1.3-3.5-4.4-6.7-6-.5-.2-1.1 0-1.4.5-.6.4-.6.7-.5.9m-7.6 10.5c-.1 0-.1 0 0 0-.5.4-1.8 1.2-2.9 1.2-.1 0-.2 0-.4 0s-.5-.1-.8-.5c.5-1.1 1.7-1.9 2.7-2.5 1.4-.8 2-.3 2.1-.3.4.4.4.7.4.8-.1.4-.8 1-1.1 1.3zm-11.7-5.8c1.4-1.4 2.6-1.8 3.5-1.3.3.1.6.4.7.7v.3c-.2.2-.4.3-.7.5-1.5 1.1-2.4 2.2-2.7 3.3-.2 0-.5-.1-.7-.2-1.2-.4-1.3-1.1-1.3-1.3-.1-.5.2-1.1 1.2-2m-1.4-1.4c-.7.7-1.4 1.5-1.7 2.6-.2 0-.4 0-.6-.1-.7-.1-1.2-.4-1.4-.6-.1-.1-.2-.5.3-1.2.7-1 2.4-1.7 3.4-1.6h.1c.1 0 .4.1.6.1-.3.3-.5.5-.7.8m6.1 3.3c1.9-1.3 2.8-1.8 3.8-.9.3.2.4.5.4.7 0 .4-.4.9-.8 1.2-1.2.8-2 1.7-2.4 2.8-.3 0-.7.1-1.1.1-.5 0-1-.1-1.4-.3-.2-.1-.4-.3-.4-.8-.2-1.1 1.1-2.2 1.9-2.8m20.6-89.9s-.1-.1 0 0c0-.1 0-.1 0-.1.9-.3 1.7-.4 2.6-.5 2.4-.1 4.4.6 6 2.3v.1s0 0-.1.1c-.5.2-1.3.4-2.3.4-.1 0-.2 0-.3 0-2-.1-4-.8-5.9-2.3m2.8 3.4h-32c5.1-2.6 10.5-3.9 16-3.9s10.9 1.3 16 3.9m4-6.5c-.7.3-1.8.7-3.1.9-.8.2-1.6.2-2.3.2-1.7 0-3.2-.4-4.4-1.3 0 0 0 0 0-.1v-.1c.5-.3 1.5-.8 2.6-1 1.2-.3 2.5-.3 3.7-.1s2.3.6 3.5 1.3c.1 0 .1.1 0 .2.1-.1.1-.1 0 0m-7.6-2.7c-.8.4-2.2.9-4.3 1.1-.3 0-.5.2-.6.5s0 .6.3.7c0 0 1.6 1.1 2.8 2.6v.1s0 0-.1 0c-2-.1-5.6-.6-8.3-3.8v-.1c.4-.4 1.1-1 2.3-1.4 2.1-.8 4.8-.8 7.8 0 .1.1.1.1.1.3 0-.1 0-.1 0 0m-8.8-1.5c-.7.5-2 1.3-4 2-.3.1-.5.3-.5.6s.2.5.4.6c0 0 1.8.7 3.2 1.9v.1s0 .1-.1.1c-.6.1-1.2.1-1.7.1-2 0-4.8-.3-7-2v-.1c.3-.5.9-1.2 1.9-1.8 1.9-1.2 4.6-1.7 7.7-1.5.1-.1.1-.1.1 0zm-9 .2c-.5.7-1.5 1.7-3.6 2.7-.3.1-.4.4-.4.7s.3.5.5.6c0 0 1.8.3 3.5 1.2 0 0 .1.1.1.1s0 .1-.1.1c-.8.3-1.6.5-2.3.6-.8.1-1.6.2-2.4.2-1.6 0-3-.3-4.2-.9 0 0-.1-.1 0-.1.2-.5.6-1.3 1.5-2.2 1.6-1.6 4.2-2.7 7.4-3.2v.2c0-.1 0-.1 0 0m-8.4 1.4c-.4 1-1.3 2.4-3.2 4.1-.2.2-.3.5-.2.7.1.3.3.4.6.4.1 0 .9 0 1.8.1.7.1 1.3.2 1.9.4 0 0 .1 0 .1.1v.1c-.7.4-1.5.7-2.2 1-1.5.5-2.9.8-4.2.8-.9 0-1.7-.1-2.5-.3 0 0-.1-.1-.1-.1.3-1.5 1.7-5.2 8-7.3-.1-.1 0-.1 0 0zm33.6 11.3c1.7 1.1 3.4 2.4 5 3.8h-49.6c1.6-1.4 3.3-2.7 5-3.8zm7.3 5.9c1.2 1.2 2.3 2.4 3.4 3.8h-24.1c-3.2-2.3-6.7-2.2-7.2-2.2s-3.7.1-6.7 2.2h-23c1.1-1.3 2.3-2.6 3.4-3.8zm-35 28.1c-2-.2-3.8.4-5.9 1.3 0-.2.1-.4.1-.6 1.1-5.6 3.3-9.5 5-11.7 1.2-1.7 2.4-2.7 2.9-3.2.2-.1.3-.3.5-.4.5-.4.5-1.1.2-1.6-.4-.5-1.1-.6-1.6-.2 0 0-.2.2-.6.4-.9.6-1.8.8-2.3.5s-.7-.9-.5-1.6c.2-1.3 1.6-2.9 2.1-3.4 0 0 0 0 .1-.1 2.8-3.3 7.2-3.4 7.3-3.4 0 0 1.5-.1 3.3.5 2.4.8 4.2 2.4 5.5 4.9 1.8 3.5 3.1 6.9 4.1 10.7-2.5-.9-4.6-2.5-4.7-2.6-.5-.4-1.2-.3-1.7.2-.4.5-.3 1.2.2 1.7.1.1 3.2 2.6 6.8 3.4.3 1.3.5 2.7.8 4.4-1.2-.7-2.7-1-3.9-1.4-.8-.2-1.5-.4-2.1-.6-2.5-1-4.7-2.7-4.7-2.7-.5-.4-1.2-.3-1.7.2-.4.5-.3 1.3.2 1.7.1.1 2.4 1.9 5.3 3.1.7.3 1.5.5 2.4.7 3.2.9 4.7 1.6 4.8 3.2 0 .3-.2.5-.4.7-.9 1-2.8 1.2-3.8 1.2-.1 0-3.4 0-3.4 0-.6 0-3.7-.1-6.3-1.9-3.4-2.2-5.8-3.2-8-3.4m6.2 5.1h-9.5c-1 0-1.7-.2-2.1-.8-.1-.1-.2-.3-.3-.5 0 0 0 0 0-.1 4.3-1.9 6.3-2.2 11.9 1.4zm3.2 8.5h43.6c.1 1.4.2 2.7.2 4.1h-43.8zm0-2.2v-3.8h42.9c.2 1.3.4 2.5.5 3.8zm13.6-5.9c.4-.5.8-1 1-1.7 0-.1 0-.1.1-.2.2-.6.2-1.2.2-1.9h26.9c.3 1.3.6 2.5.8 3.8zm.9-6c-.2-1.2-.4-2.5-.6-3.8h26.1c.1.3.2.6.3 1 .3.9.6 1.9.8 2.8zm-1.1-5.9c-.3-1.2-.6-2.5-1-3.8h25.2c.5 1.2 1.1 2.5 1.5 3.8zm-1.6-6c-.4-1.2-.9-2.5-1.4-3.8h24.3c.7 1.2 1.4 2.5 2 3.8zm-2.4-5.9c-.2-.5-.5-1-.7-1.5-.4-.9-.9-1.6-1.5-2.3h23.6c.9 1.2 1.8 2.5 2.6 3.8zm-20.8-3.8c-.5.5-1.9 2.1-2.4 3.8h-22.5c.8-1.3 1.7-2.6 2.6-3.8zm-2.6 5.9c.2 1.1.8 2.1 1.7 2.6.2.1.4.2.7.3-.2.2-.4.5-.6.8h-27.4c.6-1.3 1.3-2.6 2-3.8h23.6zm.4 6c-.7 1.1-1.3 2.4-1.9 3.8h-26.6c.5-1.3 1-2.6 1.5-3.8zm-2.8 5.9c-.4 1.2-.8 2.4-1 3.8h-26.6c.3-1 .5-1.9.8-2.8.1-.3.2-.6.3-1zm-1.4 6v1.6.2c.1.8.4 1.5.8 2h-28.4c.2-1.3.5-2.5.8-3.8zm14.9 5.9v3.8h-43.4c.1-1.3.3-2.6.5-3.8zm0 6v4.1h-43.9c0-1.4.1-2.7.2-4.1zm0 6.3v8.8c-.1 0-.2 0-.3 0-2.4 0-4.4 1-6.7 2.6-3.5 2.3-15.2 4.7-34.8 6.9-1.4-5.8-2.1-11.9-2.1-18.1 0-.1 0-.2 0-.3h43.9zm14.1 19.5c-2.1-1.4-6.1-4-9.9-3-.8.2-1.4.6-2.2 1.1-.4.2-.8.5-1.2.8-1.2.7-2.8 1.1-3.8 1.1-1.2.1-1.9.1-2.2-.4-.3-.4-.3-.6-.2-.8.2-.2 1.2-.7 1.7-1 .6-.3 1.3-.6 1.8-1 .7-.5 1.2-.9 1.7-1.3s1-.8 1.9-1.4c1.2-.9 2.5-.9 4.5-.9h.9.7c2.1-.1 4 .6 6.8 1.6.8.3 1.8.6 2.8 1s3.8 1.2 9.1 2.5c4.5 1.1 11.2 2.4 17.4 2.9-.3 1.1-.6 2.1-.9 3.1-1.3 4.1-3 8-4.9 11.6-3-1.3-10.7-4.6-15.7-8.3-1-.7-1.7-1.5-2.1-1.8-.1-.1-.2-.2-.2-.2-.9-1.3-3.1-3.7-6-5.6m4-6.1c-1-.3-1.9-.7-2.7-1-3-1.1-5.1-1.8-7.6-1.7-.1 0-.3 0-.4 0-1.4-.7-2.6-1.2-4.5-1.5v-9.1h43.9v.3c0 6.3-.7 12.4-2.1 18.3-12-.7-26-5.1-26.6-5.3m32-42.3h.2c.5 1.6.8 3 .8 4.5 0 1.4-.1 2.7-.5 3.9-.5 1.4-1.2 2.4-1.5 2.7 0 0 0 0-.1 0-1.8-1.1-3.1-2.9-4.1-5.3-.3-.7-.5-1.5-.7-2.3v-.1h.1c1.6 1 2.9 2.3 2.9 2.4.2.2.5.3.7.2.3-.1.4-.3.4-.6.2-2.5 1.1-4.3 1.8-5.4m-4.9-1.7c.2-.1.4-.4.4-.6-.1-2.5.6-4.4 1.2-5.6 0-.1.1-.1.1-.1s.1 0 .1.1c.7 1.5 1.1 3 1.3 4.3.2 1.4.2 2.7-.1 4-.3 1.5-.9 2.5-1.2 2.8 0 0 0 0-.1 0-1.9-.9-3.4-2.6-4.6-4.8-.4-.7-.7-1.4-.9-2.2v-.1h.1c1.7.8 3.1 2 3.1 2.1s.3.2.6.1zm-3.6-7.3c.2-.1.4-.4.3-.7-.4-2.5.1-4.4.5-5.6 0 0 0-.1.1-.1h.1c.8 1.4 1.4 2.8 1.8 4.2s.5 2.7.3 4c-.2 1.5-.6 2.5-.8 2.9 0 0 0 0-.1 0-2.1-.7-3.9-2.2-5.3-4.3-.4-.7-.8-1.4-1.2-2.2v-.1h.1c1.8.5 3.4 1.8 3.4 1.8.3.2.6.2.8.1m-5.2-6.8c.2.2.5.2.8 0 .2-.2.3-.5.2-.7-.7-2.2-.6-4.3-.4-5.6 0 0 0-.1.1-.1h.1c1 1.2 1.8 2.5 2.4 3.8s.9 2.6 1 3.9c.1 1.4-.2 2.5-.3 3 0 0 0 .1-.1.1-2.1-.4-4-1.5-5.8-3.4-.6-.6-1.1-1.3-1.6-2v-.1h.1c1.9 0 3.5 1.1 3.5 1.1m-5.2-6c.3.1.6 0 .7-.2.2-.2.2-.5.1-.8-1.1-2.2-1.3-4.2-1.3-5.5 0 0 0-.1.1-.1h.1c1.2 1.1 2.2 2.2 2.9 3.3.8 1.2 1.3 2.4 1.6 3.7.3 1.5.3 2.7.2 3.1 0 0 0 .1-.1.1h-.1c-2.4 0-4.5-1.3-5.9-2.4-.7-.5-1.4-1.2-2-1.8v-.1s0-.1.1-.1c1.7.1 3.6.8 3.6.8m-2.1-5.5c.6 1.4.6 2.8.6 3.5 0 0 0 .1-.1.1s-.3 0-.4 0c-2.9 0-6.3-2-8-3.1v-.1s0-.1.1-.1c1.8-.3 3.5 0 3.6.1.3.1.6-.1.7-.3.2-.2.1-.5 0-.8-1.1-1.4-1.8-3.1-2.2-4.2v-.1h.1c2.8.9 4.7 2.6 5.6 5m-53.7-8c-.1 0-.1 0 0 0-.1-.1-.1-.1 0 0 .6-.4 1.2-.6 1.8-.9 1.7-.6 3.3-1 4.1-1.2 1.8-.4 3.1-1.2 3.2-1.3s.1-.2.1-.3-.1-.2-.2-.2l-9.7-1.4 9.7-1.4c.1 0 .2-.1.2-.2s-.1-.2-.2-.2c0 0-1.8-.3-3.7-1.1-.6-.3-1-.5-1.5-.8-1.1-.6-2.1-1.1-3.8-1.4s0 0 0 0c.7-.1 1.3-.1 2 0 1.8.1 3.5.4 4.3.5 1.8.3 3.3.1 3.4.1s.2-.1.2-.2 0-.2-.1-.3l-8.4-5 9.5 2.4c.1 0 .2 0 .3-.1s0-.2-.1-.3c0 0-1.6-1-3-2.5-.4-.4-.8-.9-1.1-1.3-.8-1-1.5-1.8-3-2.8 0 0 0 0 0-.1.6.2 1.2.5 1.8.7 1.6.8 3.1 1.7 3.8 2.1 1.6 1 3.1 1.4 3.1 1.4.1 0 .2 0 .3-.1s.1-.2 0-.3l-5.8-7.8s0 0 0-.1h.1l7.8 5.8c.1.1.2.1.3 0s.1-.2 0-.3c0 0-1.1-1.5-1.8-3.5-.2-.6-.4-1.1-.5-1.6-.4-1.2-.7-2.3-1.7-3.7.5.4 1 .9 1.4 1.4 1.2 1.4 2.2 2.7 2.7 3.4 1.1 1.5 2.3 2.4 2.4 2.5s.2.1.3 0 .1-.2.1-.3l-2.4-9.5h.1l5 8.4c.1.1.2.1.3.1s.2-.2.1-.3c0-.1-.4-1.8-.4-3.9 0-.6.1-1.1.1-1.6.1-1.3.2-2.3-.2-4.1.3.6.6 1.2.8 1.8.6 1.7 1 3.3 1.2 4.2.4 1.8 1.2 3 1.2 3.2.1.1.2.1.3.1s.2-.1.2-.2l1.4-9.6h.1l1.4 9.6c0 .1.1.2.2.2s.2-.1.2-.2.3-1.9 1.1-3.8c.2-.5.5-1 .7-1.5.6-1.1 1.1-2.1 1.4-3.8.1.7.1 1.3 0 2-.1 1.8-.4 3.5-.5 4.3-.1 1.8.1 3.3.2 3.3 0 .1.1.2.2.2s.2 0 .3-.1l5-8.4h.1l-2.4 9.5c0 .1 0 .2.1.3.1 0 .2 0 .3-.1 0 0 1-1.6 2.5-3 .4-.4.9-.8 1.3-1.1 1-.8 1.8-1.5 2.8-3-.2.6-.4 1.2-.7 1.8-.8 1.6-1.7 3.1-2.1 3.8-1 1.6-1.3 3.1-1.4 3.1 0 .1 0 .2.1.3s.2.1.3 0l7.8-5.9v.1l-5.8 7.9c-.1.1-.1.2 0 .3s.2.1.3 0c0 0 1.5-1.1 3.4-1.8.6-.2 1.1-.4 1.6-.5 1.2-.4 2.2-.7 3.7-1.7v.1c-.4.5-.9 1-1.4 1.4-1.3 1.2-2.7 2.2-3.4 2.7-1.5 1.1-2.4 2.3-2.5 2.4s-.1.2 0 .3.2.1.3.1l9.4-2.4-8.4 5c-.1.1-.1.2-.1.3s.2.2.3.2 1.8-.4 3.9-.4c.6 0 1.1.1 1.6.1 1.3.1 2.3.3 4-.1-.6.3-1.2.6-1.8.8-1.7.6-3.3 1-4.1 1.2-1.8.4-3.1 1.2-3.2 1.2-.1.1-.1.2-.1.3s.1.2.2.2l9.6 1.4-9.7 1.5c-.1 0-.2.1-.2.2s.1.2.2.2c0 0 1.8.3 3.7 1.1.5.3 1 .5 1.5.8 1.1.6 2.1 1.1 3.8 1.4-.4 0-.8 0-1.2 0-.3 0-.6 0-.8 0-1.8-.1-3.5-.4-4.3-.5-.1 0-.2 0-.2 0-1.5-.7-3.1-1-4.6-1h-.1c0-.1 0-.1 0-.2-.1-.2-.2-.4-.5-.5-1.8-.6-3.5-1-5.1-1.1-.1 0-.2 0-.2 0h-.1c-.1 0-.2 0-.3 0h-.1s0 0-.1 0-.2 0-.4 0h-.1c-.7 0-1.4.1-2.1.2 0-.1 0-.2-.1-.3 0 0 0 0 0-.1-.1-.2-.3-.4-.5-.4s-.3 0-.5-.1h-.1-.1c-.1 0-.2 0-.3 0s-.1 0-.2 0-.2 0-.3 0c-1.8-.1-3.5-.1-5 .2-.4.1-.8.2-1.2.3h-.1c-.1 0-.1 0-.2.1h-.1c-.1 0-.2.1-.3.1-.2.1-.4.1-.6.2v-.1c0-.2 0-.4-.2-.6s0 0-.1-.1c-.1-.1-.3-.2-.5-.2-2.4.2-4.4.7-6.2 1.4-.6.3-1.1.5-1.6.9 0-.1 0-.2 0-.2 0-.2-.1-.5-.3-.6 0 0 0 0-.1 0s0 0-.1 0c-.2-.1-.3-.1-.5 0-2.3.6-4.3 1.5-5.9 2.6 0 0-.1 0-.1.1-.5 0-.9 0-1.4 0-.4 0-1.6-.1-1.6-.1-.6-.3-1.7-.4-3.4 0m3.6 1.9c.1 0 .1 0 0 0 .1 0 .1 0 .1.1-.1 1.3-.5 3.2-1.8 5.4-.1.2-.1.5 0 .7.2.2.4.3.7.3 0 0 1.8-.4 3.6-.2 0 0 .1 0 .1.1v.1c-1.5 1.2-4.6 3.3-7.9 3.3-.1 0-.2 0-.4 0 0 0-.1 0-.1-.1 0-1.7.3-5.8 5.7-9.7m-11.4 12.2c.3-1.2.8-2.5 1.6-3.7s1.8-2.3 3-3.4h.1s.1 0 .1.1c0 1.3-.1 3.3-1.3 5.5-.1.2-.1.5.1.7s.5.3.7.2c0 0 1.7-.6 3.5-.6 0 0 .1 0 .1.1v.1c-.7.7-1.4 1.3-2.1 1.8-1.4 1.1-3.5 2.4-5.6 2.4-.1 0-.2 0-.2 0s-.1 0-.1-.1c-.1-.5-.2-1.6.1-3.1m-1.8-1c0-.1 0-.1 0 0h.1c.3 1.3.4 3.3-.4 5.7-.1.3 0 .6.2.7.2.2.5.2.8 0 0 0 1.6-1.1 3.5-1.2h.1v.1c-1.3 1.8-3.9 4.9-7.3 5.4s-.1 0-.1-.1c-.5-1.4-1.2-5.5 3.1-10.6m-7.3 11c.4-1.3 1.1-2.7 2-4.1h.1s.1 0 .1.1c.4 1.2.8 3.2.3 5.7-.1.3.1.6.3.7.3.1.6.1.8-.1 0 0 1.5-1.4 3.4-1.7h.1v.1c-.3.6-.7 1.4-1.4 2.3-1.5 2.1-3.3 3.4-5.3 4h-.1c-.2-.4-.6-1.5-.7-3-.2-1.3-.1-2.7.4-4m-4 7.6c.2-1.4.6-2.8 1.3-4.3 0 0 0-.1.1-.1h.1c.6 1.2 1.2 3.1 1.1 5.6 0 .3.1.5.4.6.2.1.5.1.7-.1.1-.1 1.6-1.3 3.3-2.1h.1v.1c-.2.7-.4 1.4-.8 2.1-1.1 2.2-2.8 3.9-5 5h-.1c-.3-.4-.8-1.4-1.1-2.8-.3-1.3-.3-2.6-.1-4m-2.1 3.6c0-.1 0-.1 0 0 .1-.1.1-.1.2 0 .7 1.1 1.6 2.9 1.8 5.4 0 .3.2.5.5.6s.5 0 .7-.2c0 0 1.3-1.5 3-2.5h.1v.1c-.1.7-.2 1.5-.5 2.2-.8 2.4-2.2 4.2-4.4 5.6h-.1c-.3-.3-1-1.3-1.5-2.7-.4-1.2-.6-2.5-.6-3.9 0-1.6.3-3.1.8-4.6m-2.4 8.2c.1-.1.1-.1.1 0 .8 1 2 2.7 2.5 5.1.1.3.3.5.5.5.3.1.5-.1.7-.3.1-.2 1.2-1.7 2.6-2.8h.1v.1c0 .7-.1 1.5-.3 2.2-.5 2.4-1.7 4.4-3.5 6 0 0 0 0-.1 0 0 0 0 0-.1 0-.4-.4-1.2-1.2-1.8-2.5-.6-1.1-.9-2.4-1.1-3.8 0-1.4.1-2.9.4-4.5m-1.3 8.3c.1-.1.1-.1.1-.1.9.9 2.1 2.6 2.7 5 .1.3.3.5.6.5s.5-.1.7-.4c0-.1.8-1.7 2.2-2.9h.1s.1 0 .1.1c0 .8-.1 1.7-.2 2.5-.4 2.5-1.4 4.5-2.9 6 0 0 0 0-.1 0 0 0 0 0-.1 0-.3-.3-1.2-1.1-1.9-2.4-.6-1.1-1-2.4-1.2-3.8-.3-1.4-.3-2.9-.1-4.5m-.7 8.7c.1-.1.1-.1.1-.1.2.2.4.3.5.5.8.8 1.8 2.2 2.5 4.3.1.3.3.5.6.5.3 0 .6-.3.6-.6 0 0 .3-1.8 1.8-3.2h.1s0 0 .1.1c.2 1 .3 2.5 0 4.1-.3 1.9-1.1 3.6-2.4 4.8 0 0 0 0-.1 0-1.2-.9-4.2-3.8-3.8-10.4m-.3 8.4s.1 0 0 0c.3.2.5.3.7.5.9.7 2 2 2.9 4 .1.2.3.4.6.4.3 0 .5-.2.6-.4 0-.1.8-1.9 2-3.3h.1s.1 0 .1.1c.4 1.8.6 5.3-2 8.9 0 0 0 0-.1 0-1.4-.9-4.7-3.5-4.9-10.2zm.4 8.8c.1-.1.1-.1.1-.1 1.2.6 2.8 1.7 4.2 3.8.2.2.4.3.7.3.3-.1.5-.3.5-.5 0-.1.5-2.1 1.4-3.7h.1s.1 0 .1.1c.3.7.6 1.5.8 2.2.5 2.4.1 4.7-1.2 6.9 0 0 0 0-.1 0-.4-.2-1.5-.6-2.6-1.6-1-.8-1.8-1.9-2.5-3.2-.6-1.1-1.1-2.6-1.5-4.2m2 8.2c0-.1 0-.1 0 0 .1-.1.1-.1.1-.1.2.1.4.2.7.3 1 .5 2.5 1.5 3.8 3.2.2.2.4.3.7.2s.5-.3.5-.5c0-.1.3-2 1.1-3.6 0 0 0-.1.1-.1 0 0 .1 0 .1.1.8 1.8 2 5.4.3 9 0 0 0 0-.1 0-1.6-.4-5.4-2.2-7.3-8.5m4.9 12.1c-.9-1.1-1.7-2.4-2.3-3.9v-.1h.1c.2.1.5.1.7.2 1.1.4 2.6 1.2 4.2 2.7.2.2.5.3.7.2.3-.1.4-.3.4-.6 0 0 .1-1.9.6-3.7 0 0 0-.1.1-.1h.1c.4.7.7 1.4 1 2.2.9 2.4 1 4.6.4 6.7 0 0 0 .1-.1.1-.4-.1-1.6-.3-2.9-1.1-1.1-.6-2.1-1.5-3-2.6m1.2 3.8c0-.1.1-.1.1-.1 1.3.2 3.2.8 5.2 2.4.2.2.5.2.7.1s.4-.4.3-.7c0-.1-.2-1.8.2-3.7 0 0 0-.1.1-.1h.1c.5.7.9 1.4 1.2 2.1.8 1.6 1.6 4 1.2 6.5 0 0 0 .1-.1.1-.5 0-1.7-.2-3-.8-1.2-.5-2.3-1.3-3.3-2.3-1-.8-1.9-2.1-2.7-3.5m7.4 10.6c-1.1-.9-2.2-2-3.1-3.3v-.1s.1-.1.1 0c1.3.1 3.3.5 5.4 1.8.2.1.5.1.8 0 .2-.2.3-.4.3-.7 0 0-.4-1.8-.2-3.6 0 0 0-.1.1-.1h.1c1.3 1.6 3.6 4.9 3.3 8.3 0 0 0 .1-.1.1s-.2 0-.3 0c-.6 0-1.6-.1-2.7-.4-1.4-.5-2.5-1.1-3.7-2m12.1 8c-.2 0-.6.1-1.1.1s-1.1-.1-1.7-.2c-2.4-.5-4.8-1.9-7.2-4.1v-.1s0-.1.1-.1c1.3-.2 3.3-.2 5.7.8.3.1.5 0 .7-.2s.2-.5.1-.7c0 0-.7-1.7-.9-3.6 0 0 0-.1.1-.1h.1c1.6 1.5 4.4 4.3 4.1 8.2.1 0 .1 0 0 0m16 7c-1.9-.5-3.7-1.2-5.6-1.9-3.1-1.3-6.1-3-9-5 .1-1.1-.1-2.3-.5-3.4 2.2 1.8 4.1 3.3 6.3 4.4 2.5 1.4 5 2.5 7.7 3.3l.7.2c-.1.9.2 1.8.7 2.6zm4.4-2c-.3.9-.3 1.9.2 2.8v.1h-.1c-1.2-.4-2-.9-2.6-1.6-.5-.6-.6-1.2-.5-1.9.1-.6.3-.9.7-1.2.7-.5 2-.6 3.8-.5 0 0 .1 0 .1.1v.1c-.8.6-1.3 1.2-1.6 2.1m5.3 8.4c-1.3 0-2.3-1-2.3-2.3s1-2.3 2.3-2.3 2.3 1 2.3 2.3-1 2.3-2.3 2.3m2.8-5.3h-.1c-.7-.7-1.7-1-2.7-1s-1.9.4-2.7 1h-.1-.1c-.6-.6-1.2-1.6-.9-2.5.8-2.1 3.6-2.1 3.7-2.1.2 0 .9 0 1.6.3 1.1.3 1.8.9 2.1 1.8.4.9-.2 1.8-.8 2.5m5-1.7c-.5.6-1.4 1.2-2.6 1.6h-.1v-.1c.5-1 .5-1.9.2-2.8-.3-.8-.8-1.5-1.5-2 0 0-.1-.1 0-.1 0 0 .1-.1.1-.1 1.2-.1 2.9-.1 3.8.5.4.3.7.7.7 1.2.1.6-.1 1.2-.6 1.8m16.5-6.4c-.7.5-3.1 2.3-6.7 4.1-2.5 1.2-5.1 2.2-7.7 2.9l-.5.1c.5-.8.8-1.7.7-2.6l.8-.2c2.6-.8 5.1-1.9 7.6-3.2 2.3-1.3 4.4-2.9 6.3-4.5-.4 1.1-.5 2.3-.5 3.4m-6.7-.3c-2.5 1.4-5 2.5-7.6 3.2l-.2.1c-.3-.5-.6-.9-1.1-1.2-2.5-1.6-7.2-.4-8.6 0 0 0 0 0-.1 0-1.4-.4-6.1-1.6-8.6 0-.5.3-.9.7-1.1 1.2l-.4-.1c-2.5-.8-5.1-1.8-7.4-3.2-5.4-3-10.2-7.4-14.4-12.9-1.4-1.9-2.8-4-4-6.1 2.9-1.3 10.2-4.6 16.6-7.9s0 0 0 0c0 .3.1.5.2.8.5 1.2 1.9 1.7 3 1.8.3 0 .6.1 1 .1.4 1 1.3 1.7 2.5 2.2.4.1.9.2 1.4.3.2.6.6 1 1.1 1.4 1.2.8 3 .7 3.9.6.5.7 1.2 1.1 2.1 1.3.8.2 1.7.1 2.6-.3v11.2c0 .8.6 1.4 1.4 1.4s1.4-.6 1.4-1.4v-11.7c1.5.3 2.8 0 3.5-.3s1.2-.6 1.5-.9c1.4.2 2.7-.1 3.7-1.1.3-.3.6-.6.8-1h.3c1.8 0 2.9-.8 3.5-1.5.3-.3.5-.7.7-1.1 1.2-.1 2.2-.4 2.9-1.1.3-.3.6-.7.8-1.1 5.1 4 13.2 7.5 16.4 8.9-1.2 2-2.5 3.9-3.8 5.7-3.8 5.3-8.6 9.6-14 12.7m18.1-3.9c-3 2.8-5.6 3.8-7.2 4.1-.6.1-1.1.2-1.7.2-.5 0-.9 0-1.1-.1 0 0-.1 0-.1-.1-.1-2.2.7-4.3 2.4-6.3.5-.6 1.1-1.2 1.8-1.8h.1s.1.1 0 .1c-.2 1.8-.9 3.5-.9 3.5-.1.2-.1.5.1.7s.5.2.7.2c2.3-.9 4.4-.9 5.7-.8.2.2.2.2.2.3 0-.1 0 0 0 0m5.3-7.1c-1 1.3-2 2.4-3.1 3.3s-2.3 1.5-3.5 1.9c-1.1.4-2.1.4-2.7.4-.1 0-.2 0-.3 0 0 0-.1 0-.1-.1-.1-2.1.5-4.2 1.9-6.4.4-.7.9-1.3 1.5-1.9h.1s.1 0 .1.1c.2 1.8-.2 3.5-.2 3.7-.1.3.1.5.3.7s.5.2.7 0c2.1-1.4 4.1-1.7 5.4-1.8-.1 0-.1 0-.1.1zm4.4-7.3c-.8 1.4-1.7 2.6-2.7 3.6s-2.1 1.8-3.3 2.3c-1.4.6-2.5.7-3 .8 0 0-.1 0-.1-.1-.4-2.1 0-4.3 1.2-6.5.4-.7.8-1.4 1.2-2.1h.1s.1 0 .1.1c.4 1.8.2 3.7.2 3.7 0 .3.1.5.3.6s.5.1.7-.1c2-1.6 3.9-2.2 5.2-2.4 0 0 0 0 .1.1zm3.5-7.9c-.7 1.5-1.5 2.9-2.4 4s-1.9 2-3 2.6c-1.2.7-2.3 1-2.9 1.1s-.1 0-.1-.1c-.6-2.1-.5-4.4.4-6.7.3-.7.6-1.4 1-2.1 0 0 .1-.1.1 0 0 0 .1 0 .1.1.6 1.8.7 3.6.7 3.7 0 .3.2.5.4.6s.5 0 .7-.2c1.6-1.7 3.1-2.5 4.2-2.8.3-.1.5-.2.8-.2-.1-.2-.1-.2 0 0 0-.1 0-.1 0 0m2.5-8.1c-.5 1.6-1.1 2.9-1.9 4.1s-1.7 2.2-2.7 2.9c-1.2.9-2.3 1.3-2.8 1.4s-.1 0-.1-.1c-1-2.4-.7-5-.3-6.8.2-.8.4-1.6.8-2.4 0 0 0-.1.1-.1 0 0 .1 0 .1.1.7 1.7 1 3.7 1 3.8 0 .3.2.5.5.6s.5 0 .7-.2c1.6-1.9 3.3-2.9 4.6-3.4-.1 0-.1 0 0 .1zm.2-4.1c-.6 1.3-1.4 2.4-2.3 3.2-1 1-2 1.5-2.5 1.7h-.1c-1.1-1.9-1.5-4.2-1.2-6.8.1-.8.3-1.6.5-2.4 0 0 0-.1.1-.1h.1c.9 1.6 1.5 3.6 1.5 3.7.1.3.3.5.5.5.3 0 .5-.1.7-.3 1.3-2.1 3-3.3 4.1-4h.1v.1c-.4 1.7-.8 3.1-1.5 4.4"/><path d="m203.2 149.7-3-9.3c-.1-.3-.4-.5-.7-.5h-13c-.3 0-.6.2-.7.5l-3 9.3c-.1.3-.4.5-.7.5h-4.8c-.5 0-.9-.5-.7-1l11.6-34.6c.1-.3.4-.5.7-.5h8.3c.3 0 .6.2.7.5l11.6 34.6c.2.5-.2 1-.7 1h-4.8c-.4 0-.7-.2-.8-.5m-14.6-15.1h8.6c.5 0 .9-.5.7-1l-4.3-13.1c-.2-.7-1.2-.7-1.5 0l-4.3 13.1c-.1.4.2 1 .8 1"/><path d="m214.2 123.5h3.8c.4 0 .7.3.8.7l.4 2.8h.3c.8-1.3 1.8-2.2 3.1-2.8s2.7-1 4.2-1c.5 0 1 0 1.4.1.4 0 .7.4.7.8v4.2c0 .5-.4.8-.8.8-.5 0-1-.1-1.7-.1-1.3 0-2.5.3-3.8.8-1.1.5-2 1.1-2.7 2-.1.1-.2.3-.2.5v17.1c0 .4-.4.8-.8.8h-4.8c-.4 0-.8-.3-.8-.8v-25.1c.1-.4.5-.8.9-.8"/><path d="m236.7 161.1c-1.3-.2-2.5-.4-3.6-.7-.3-.1-.6-.4-.6-.8v-3.5c0-.5.5-.9 1-.7 2.5.6 4.9 1 7.1 1 1.8 0 3.3-.2 4.4-.7s2-1.2 2.5-2.2.8-2.4.8-4v-2.1h-.3c-.8 1-1.8 1.7-3 2.2s-2.5.8-4 .8c-1.9 0-3.6-.5-5.2-1.4-1.5-.9-2.8-2.4-3.7-4.3s-1.4-4.4-1.4-7.3c0-4.7 1.2-8.2 3.7-10.6 2.4-2.4 6.1-3.6 10.9-3.6 1.6 0 3.2.1 5 .4 1.5.2 2.8.5 4 .9.3.1.5.4.5.8v23.2c0 3.1-.5 5.6-1.5 7.5s-2.5 3.3-4.5 4.3c-2 .9-4.6 1.4-7.7 1.4-1.5-.3-2.9-.4-4.4-.6m9.4-16.5c.8-.3 1.5-.8 2.1-1.4.1-.1.2-.3.2-.5v-13.6c0-.4-.3-.7-.6-.8-1-.2-2-.3-3-.3-2.5 0-4.4.7-5.7 2.1s-1.9 3.6-1.9 6.7c0 3 .5 5.2 1.6 6.4s2.6 1.9 4.5 1.9c1 .1 1.9-.1 2.8-.5"/><path d="m282 138.8h-14.9c-.5 0-.8.4-.8.9.1 1.3.4 2.4.9 3.2.6 1 1.5 1.8 2.6 2.2 1.2.5 2.8.7 4.8.7 1.7 0 3.6-.2 5.7-.7.5-.1 1 .3 1 .8v3.3c0 .4-.3.7-.6.8-2.3.5-4.7.8-7 .8-3.2 0-5.8-.5-7.8-1.4-2-1-3.6-2.5-4.6-4.5s-1.5-4.7-1.5-7.9c0-3 .5-5.5 1.4-7.5.9-2.1 2.3-3.6 4-4.6 1.8-1 3.9-1.6 6.4-1.6 3.6 0 6.4 1.2 8.3 3.5s2.8 5.8 2.8 10.4v1c.1.2-.3.6-.7.6m-14.3-9.7c-.8 1-1.3 2.7-1.4 5.1 0 .4.3.8.8.8h8.9c.4 0 .8-.4.8-.8-.1-2.3-.6-4-1.3-5.1-.9-1.2-2.1-1.8-3.8-1.8-1.8 0-3.1.6-4 1.8"/><path d="m288.3 123.5h3.9c.4 0 .7.3.8.7l.3 2.1h.3c1-1 2.2-1.8 3.6-2.4 1.4-.5 2.9-.8 4.4-.8 2.7 0 4.9.8 6.5 2.4s2.4 4.2 2.4 7.7v16.2c0 .4-.4.8-.8.8h-4.8c-.4 0-.8-.3-.8-.8v-15.8c0-1.8-.4-3-1.1-3.8s-1.8-1.1-3.3-1.1c-1.1 0-2.1.2-3.2.7-1 .4-1.8 1-2.4 1.8-.1.1-.2.3-.2.5v17.8c0 .4-.3.8-.8.8h-4.8c-.4 0-.8-.3-.8-.8v-25.1c0-.5.4-.9.8-.9"/><path d="m332.5 145.9v3.6c0 .4-.3.7-.6.8-1.3.3-2.7.4-4 .4-6.3 0-9.5-3.2-9.5-9.6v-11.7c0-.4-.3-.8-.8-.8h-3c-.4 0-.8-.3-.8-.8v-3.6c0-.4.3-.8.8-.8h3.1c.4 0 .7-.3.8-.7l1-8.1c0-.4.4-.7.8-.7h3.8c.4 0 .8.3.8.8v7.9c0 .4.4.8.8.8h5.9c.4 0 .8.4.8.8v3.6c0 .4-.3.8-.8.8h-5.9c-.4 0-.8.3-.8.8v10.7c0 1.3.2 2.3.5 3.1s.8 1.3 1.5 1.7c.7.3 1.6.5 2.7.5.6 0 1.3-.1 2.1-.2.4-.1.8.3.8.7"/><path d="m337.2 118.1c-.7-.6-1-1.5-1-2.6s.3-2 1-2.6 1.7-.9 3-.9c1.4 0 2.4.3 3 .9.7.6 1 1.5 1 2.6s-.3 2-1 2.6-1.7.9-3 .9-2.3-.3-3-.9m-.2 31.3v-25.1c0-.4.3-.8.8-.8h4.9c.4 0 .8.3.8.8v25.1c0 .4-.3.8-.8.8h-4.9c-.4 0-.8-.4-.8-.8"/><path d="m349.5 123.5h3.9c.4 0 .7.3.8.7l.3 2.1h.3c1-1 2.2-1.8 3.6-2.4 1.4-.5 2.9-.8 4.4-.8 2.8 0 4.9.8 6.5 2.4s2.4 4.2 2.4 7.7v16.2c0 .4-.4.8-.8.8h-4.9c-.4 0-.8-.3-.8-.8v-15.8c0-1.8-.4-3-1.1-3.8s-1.8-1.1-3.3-1.1c-1.1 0-2.1.2-3.2.7-1 .4-1.8 1-2.4 1.8-.1.1-.2.3-.2.5v17.8c0 .4-.4.8-.8.8h-4.8c-.4 0-.8-.3-.8-.8v-25.1c.1-.5.4-.9.9-.9"/><path d="m393.2 124.1c1.7.7 2.9 1.8 3.7 3.3s1.2 3.6 1.2 6.3v15.6c0 .4-.3.8-.8.8h-3.9c-.4 0-.7-.3-.8-.7l-.3-2.1h-.3c-.8 1.1-1.8 1.9-3.1 2.4s-2.7.8-4.2.8c-1.7 0-3.2-.3-4.5-.9s-2.2-1.5-2.9-2.6-1-2.5-1-4c0-2.5.8-4.4 2.5-5.7s4.4-2.2 8-2.5l5-.5v-1c0-1.3-.2-2.4-.6-3.2s-1.1-1.3-2-1.7c-.9-.3-2.2-.5-3.7-.5-1.1 0-2.3.1-3.5.3-.9.1-1.8.3-2.7.5-.5.1-1-.2-1-.7v-3.3c0-.4.2-.7.6-.8 1.1-.3 2.2-.5 3.5-.7 1.5-.2 2.9-.3 4.2-.3 2.8.2 5 .6 6.6 1.2m-3.6 21.5c.8-.3 1.5-.8 2.2-1.5.1-.2.2-.4.2-.6v-4.5c0-.5-.4-.8-.9-.8l-3.5.3c-1.7.2-2.9.6-3.7 1.2s-1.2 1.5-1.2 2.7.3 2.1 1 2.7 1.7.9 3 .9c1.1.1 2-.1 2.9-.4"/><path d="m200.5 67.1h5.8v26.5h-4.5v-20l-7.2 16.2h-4l-7.3-15.8v19.6h-4.5v-26.5h5.8l8.1 17.9z"/><path d="m211.5 70.1c-.5-.4-.7-1.1-.7-1.9s.2-1.5.7-1.9 1.2-.7 2.2-.7 1.7.2 2.2.7c.5.4.7 1.1.7 1.9s-.2 1.5-.7 1.9-1.2.7-2.2.7c-1-.1-1.7-.3-2.2-.7m-.2 4h4.7v19.5h-4.7z"/><path d="m220.7 74.1h3.9l.3 2.1h.3c.7-.8 1.6-1.3 2.6-1.8 1-.4 2.1-.6 3.2-.6 2 0 3.6.6 4.8 1.8s1.8 3.1 1.8 5.6v12.4h-4.7v-12.2c0-1.3-.3-2.2-.8-2.8-.6-.6-1.4-.8-2.4-.8-.8 0-1.6.2-2.3.5-.8.3-1.4.8-1.9 1.5v13.8h-4.7v-19.5z"/><path d="m242.2 70.1c-.5-.4-.7-1.1-.7-1.9s.2-1.5.7-1.9 1.2-.7 2.2-.7 1.7.2 2.2.7c.5.4.7 1.1.7 1.9s-.2 1.5-.7 1.9-1.2.7-2.2.7c-1-.1-1.7-.3-2.2-.7m-.2 4h4.7v19.5h-4.7z"/><path d="m250.8 93.1v-3.5c1.9.6 3.9.9 5.9.9 1.4 0 2.4-.2 3-.6s1-1 1-1.8c0-.6-.2-1.1-.5-1.5-.3-.3-.9-.6-1.7-.8l-3-.6c-1.8-.4-3.1-1-3.9-1.9s-1.2-2.1-1.2-3.6c0-1.2.3-2.3 1-3.2.6-.9 1.6-1.6 2.9-2.1s2.9-.8 4.8-.8c1.8 0 3.5.2 5 .6v3.5c-1.5-.4-3.2-.6-4.9-.6-2.9 0-4.4.8-4.4 2.4 0 .6.2 1 .5 1.4.3.3.9.6 1.7.8l3 .6c1.8.4 3.1 1 3.9 1.8.8.9 1.3 2.1 1.3 3.7 0 1.2-.3 2.3-1 3.2-.6.9-1.6 1.6-2.8 2.1s-2.8.7-4.5.7c-2.4.2-4.3-.1-6.1-.7"/><path d="m279.9 89.8v3.8c-1.1.3-2.3.4-3.4.4-4.6 0-6.9-2.3-6.9-7v-9.1h-3.4v-3.7h3.4l.8-7h3.9v7h5.5v3.7h-5.5v8.4c0 1 .1 1.7.4 2.3.2.6.6 1 1.1 1.2s1.2.4 2 .4c.5-.2 1.2-.2 2.1-.4"/><path d="m298.4 85.2h-12.1c.1 1.3.3 2.3.7 3s1.1 1.3 1.9 1.6c.9.3 2 .5 3.5.5 1.4 0 3.1-.2 4.9-.7v3.6c-1.9.5-3.7.7-5.5.7-2.3 0-4.2-.4-5.7-1.1s-2.6-1.8-3.4-3.3c-.7-1.5-1.1-3.4-1.1-5.8 0-2.2.3-4 1-5.5s1.7-2.6 3-3.4 2.8-1.1 4.7-1.1c2.7 0 4.7.9 6.1 2.6s2.1 4.3 2.1 7.6v1.3zm-11.1-7.1c-.7.9-1 2.3-1 4.3h7.7c0-2-.4-3.5-1-4.3-.6-.9-1.6-1.3-2.8-1.3-1.3 0-2.3.4-2.9 1.3"/><path d="m301.8 74.1h3.9l.4 2.5h.3c.6-.9 1.3-1.6 2.3-2.1.9-.5 2-.7 3.1-.7.5 0 1 0 1.6.1v4.3c-.5-.1-1.1-.1-1.8-.1-.9 0-1.8.2-2.8.6-.9.4-1.6.9-2.1 1.6v13.3h-4.7v-19.5z"/><path d="m316.1 70.1c-.5-.4-.7-1.1-.7-1.9s.2-1.5.7-1.9 1.2-.7 2.2-.7 1.7.2 2.2.7c.5.4.8 1.1.8 1.9s-.3 1.5-.8 1.9-1.2.7-2.2.7c-.9-.1-1.7-.3-2.2-.7m-.1 4h4.7v19.5h-4.7z"/><path d="m326.8 91.4c-1.6-1.7-2.4-4.2-2.4-7.6s.8-5.9 2.4-7.6 3.8-2.5 6.7-2.5 5.1.8 6.7 2.5 2.4 4.2 2.4 7.6c0 2.3-.4 4.1-1.1 5.6s-1.8 2.6-3.1 3.4c-1.4.7-3 1.1-4.9 1.1-2.8 0-5.1-.8-6.7-2.5m10-2.5c.7-1 1.1-2.6 1.1-5s-.4-4.1-1.1-5c-.7-1-1.8-1.5-3.3-1.5-1.4 0-2.5.5-3.3 1.5-.7 1-1.1 2.6-1.1 5 0 1.6.2 2.9.5 3.8.3 1 .8 1.6 1.5 2.1.6.4 1.4.6 2.4.6 1.5-.1 2.5-.6 3.3-1.5"/><path d="m358.2 92.9c-1.2-.7-2.1-1.7-2.8-3.2-.7-1.4-1.1-3.3-1.1-5.5 0-3.4.9-6 2.6-7.8 1.8-1.8 4.3-2.7 7.7-2.7.8 0 1.7.1 2.6.2v-9.3h4.7v28.9h-4l-.3-2.1h-.3c-.6.7-1.3 1.3-2.2 1.8-.9.4-1.9.6-3 .6-1.4.1-2.7-.2-3.9-.9m7.4-3.3c.7-.3 1.2-.7 1.7-1.3v-10.7c-.8-.2-1.7-.3-2.6-.3-1.9 0-3.3.5-4.2 1.5s-1.4 2.7-1.4 4.9c0 2.3.4 3.9 1.2 4.8s1.9 1.4 3.3 1.4c.6.2 1.3 0 2-.3"/><path d="m392.5 85.2h-12.1c.1 1.3.3 2.3.7 3s1.1 1.3 1.9 1.6c.9.3 2 .5 3.5.5 1.4 0 3.1-.2 4.9-.7v3.6c-1.9.5-3.7.7-5.5.7-2.3 0-4.2-.4-5.7-1.1s-2.6-1.8-3.4-3.3c-.7-1.5-1.1-3.4-1.1-5.8 0-2.2.3-4 1-5.5s1.7-2.6 3-3.4 2.8-1.1 4.7-1.1c2.7 0 4.7.9 6.1 2.6s2.1 4.3 2.1 7.6v1.3zm-11.1-7.1c-.7.9-1 2.3-1 4.3h7.7c0-2-.4-3.5-1-4.3-.6-.9-1.6-1.3-2.8-1.3-1.3 0-2.2.4-2.9 1.3"/><path d="m409.9 89.7h13.3v3.9h-18v-26.5h17.8v3.8h-13.1v7.2h11.3v3.9h-11.3z"/><path d="m429.1 92.9c-1.2-.7-2.1-1.7-2.8-3.2-.7-1.4-1-3.3-1-5.5 0-3.4.9-6 2.6-7.8 1.8-1.8 4.3-2.7 7.7-2.7.8 0 1.7.1 2.6.2v-9.3h4.7v28.9h-4l-.3-2.1h-.3c-.6.7-1.3 1.3-2.2 1.8-.9.4-1.9.6-3 .6-1.4.1-2.8-.2-4-.9m7.5-3.3c.7-.3 1.2-.7 1.7-1.3v-10.7c-.8-.2-1.7-.3-2.6-.3-1.9 0-3.3.5-4.2 1.5s-1.4 2.7-1.4 4.9c0 2.3.4 3.9 1.2 4.8s1.9 1.4 3.3 1.4c.6.2 1.3 0 2-.3"/><path d="m449.2 92.2c-1.2-1.2-1.8-3.1-1.8-5.6v-12.5h4.7v12.2c0 1.3.3 2.2.8 2.8s1.3.8 2.3.8c.8 0 1.5-.2 2.3-.5s1.4-.8 1.9-1.5v-13.8h4.7v19.5h-3.9l-.3-2h-.2c-.8.8-1.6 1.4-2.6 1.8s-2 .6-3.1.6c-2-.1-3.6-.7-4.8-1.8"/><path d="m470.3 91.5c-1.6-1.7-2.5-4.2-2.5-7.6s.9-6 2.6-7.6c1.7-1.7 4.3-2.5 7.6-2.5 1.5 0 2.9.2 4.2.5v3.7c-1.3-.3-2.5-.4-3.6-.4-1.4 0-2.5.2-3.4.6s-1.5 1.1-2 2c-.4.9-.6 2.1-.6 3.6 0 2.3.4 3.9 1.3 4.9s2.3 1.5 4.1 1.5c.6 0 1.2-.1 1.9-.2s1.4-.3 2.3-.5v3.8c-1.5.5-3.2.8-4.9.8-3-.1-5.4-1-7-2.6"/><path d="m496.8 74.5c1.2.5 2.1 1.3 2.8 2.4.6 1.1.9 2.7.9 4.6v12h-3.9l-.3-2h-.3c-.6.8-1.3 1.4-2.3 1.8-.9.4-1.9.6-3.1.6-1.3 0-2.4-.2-3.3-.7s-1.6-1.1-2.1-1.9-.7-1.8-.7-2.9c0-1.8.6-3.2 1.9-4.2 1.2-1 3.2-1.6 5.9-1.8l3.7-.3v-.8c0-1-.2-1.8-.5-2.3-.3-.6-.8-1-1.5-1.2s-1.6-.4-2.7-.4c-.8 0-1.7.1-2.6.2s-1.8.3-2.7.6v-3.6c.9-.3 1.9-.5 3-.6s2.1-.2 3.1-.2c1.8 0 3.4.2 4.7.7m-2.7 15.7c.6-.3 1.2-.7 1.7-1.3v-4.2l-3.2.3c-1.2.1-2.1.4-2.7.9s-.9 1.1-.9 2 .3 1.5.8 2 1.2.7 2.2.7c.8 0 1.4-.1 2.1-.4"/><path d="m506.4 91.5c-1.6-1.7-2.5-4.2-2.5-7.6s.9-6 2.6-7.6c1.7-1.7 4.3-2.5 7.6-2.5 1.5 0 2.9.2 4.2.5v3.7c-1.3-.3-2.5-.4-3.6-.4-1.4 0-2.5.2-3.4.6s-1.5 1.1-2 2c-.4.9-.6 2.1-.6 3.6 0 2.3.4 3.9 1.3 4.9s2.3 1.5 4.2 1.5c.6 0 1.2-.1 1.9-.2s1.4-.3 2.3-.5v3.8c-1.5.5-3.2.8-4.9.8-3.1-.1-5.4-1-7.1-2.6"/><path d="m521.9 70.1c-.5-.4-.7-1.1-.7-1.9s.3-1.5.7-1.9c.5-.4 1.2-.7 2.2-.7s1.7.2 2.2.7c.5.4.7 1.1.7 1.9s-.2 1.5-.7 1.9-1.2.7-2.2.7c-.9-.1-1.7-.3-2.2-.7m-.1 4h4.7v19.5h-4.7z"/><path d="m532.7 91.4c-1.6-1.7-2.4-4.2-2.4-7.6s.8-5.9 2.4-7.6 3.8-2.5 6.7-2.5 5.1.8 6.7 2.5 2.4 4.2 2.4 7.6c0 2.2-.4 4.1-1.1 5.6s-1.8 2.6-3.1 3.4c-1.4.7-3 1.1-4.9 1.1-2.9.1-5.1-.8-6.7-2.5m9.9-2.5c.7-1 1.1-2.6 1.1-5s-.4-4-1.1-5-1.8-1.5-3.3-1.5c-1.4 0-2.5.5-3.3 1.5-.7 1-1.1 2.6-1.1 5 0 1.6.2 2.9.5 3.8.3 1 .8 1.6 1.5 2.1.6.4 1.4.6 2.4.6 1.5-.1 2.6-.6 3.3-1.5m-5.4-17.5 3.9-6.7h5l-4.7 6.7z"/><path d="m552.2 74.1h3.9l.3 2.1h.3c.7-.8 1.6-1.3 2.6-1.8 1-.4 2.1-.6 3.2-.6 2 0 3.6.6 4.8 1.8s1.8 3.1 1.8 5.6v12.4h-4.7v-12.2c0-1.3-.3-2.2-.8-2.8s-1.3-.8-2.4-.8c-.8 0-1.6.2-2.3.5-.8.3-1.4.8-1.9 1.5v13.8h-4.7v-19.5z"/></g></svg>