<svg enable-background="new 0 0 200 50" viewBox="0 0 200 50" xmlns="http://www.w3.org/2000/svg"><g fill="#fff"><path d="m61.8 22.8v-13.3h3.1v13.3z"/><path d="m72.6 14c.6.2 1.1.6 1.4 1.3.3.6.5 1.4.5 2.4v5.2h-2.6l-.2-.9h-.2c-.2.3-.6.6-1 .8s-.9.2-1.4.2c-.6 0-1.1-.1-1.6-.3s-.8-.6-1-1-.3-.9-.3-1.4c0-.9.3-1.6 1-2.1.6-.5 1.6-.8 3-.9l1.3-.1c0-.3-.1-.6-.2-.8s-.3-.3-.6-.4c-.2-.1-.6-.2-1.1-.2-.4 0-.8 0-1.2.1-.5.1-.9.2-1.2.2v-2.1c.5-.2 1-.2 1.5-.2.6-.1 1-.1 1.5-.1.9-.1 1.7.1 2.4.3zm-1.7 6.8c.2-.1.4-.2.6-.3v-1.5l-1 .1c-.4 0-.7.2-.9.3-.2.2-.3.4-.3.6s.1.5.2.6c.2.2.4.2.7.2z"/><path d="m88.3 19.2h-5.3c0 .4.2.6.3.9s.4.4.8.5c.3.1.9.2 1.5.2s1.4-.1 2.3-.2v2.3c-.9 0-1.8.1-2.7.1-1.2 0-2.2-.2-3-.5s-1.4-.8-1.7-1.5c-.4-.7-.6-1.6-.6-2.6s.2-1.8.5-2.5.8-1.2 1.5-1.6c.6-.4 1.4-.6 2.4-.6 1.4 0 2.3.4 3 1.2s1 2 1 3.5v.7zm-5-3.2c-.2.3-.3.8-.3 1.4h2.5c0-.7-.1-1.2-.3-1.4-.2-.3-.5-.4-1-.4-.3 0-.7.1-.9.4z"/><path d="m91.1 22.5c-.6-.3-1-.8-1.4-1.5-.3-.6-.5-1.5-.5-2.6 0-1.6.4-2.8 1.3-3.6s2.1-1.3 3.8-1.3c.2 0 .6 0 .9.1v-4.1h3.1v13.3h-2.6l-.2-1h-.2c-.2.3-.6.6-1 .8s-.9.3-1.4.3c-.6.1-1.2-.1-1.8-.4zm3.5-2.1c.2-.1.4-.2.6-.3v-4c-.2-.1-.6-.1-.9-.1-.6 0-1.1.2-1.4.6-.3.3-.5 1-.5 1.8s.2 1.4.4 1.7.6.5 1.2.5c.2-.2.4-.2.6-.2z"/><path d="m100.9 22c-.6-.6-.9-1.5-.9-2.8v-5.4h3.1v5.3c0 .5.1.7.2 1 .2.2.4.2.7.2.2 0 .5-.1.7-.2s.5-.2.6-.4v-5.9h3.1v9h-2.4l-.2-.9h-.2c-.3.3-.7.6-1.1.8s-.9.2-1.4.2c-.9.1-1.7-.2-2.2-.9z"/><path d="m111.2 21.8c-.8-.8-1.3-1.9-1.3-3.5 0-1.5.5-2.7 1.4-3.5s2.2-1.2 3.8-1.2c.8 0 1.4.1 2.1.2v2.4c-.6-.1-1.1-.2-1.6-.2-.9 0-1.4.2-1.8.5s-.6.9-.6 1.7.2 1.4.6 1.7 1 .6 1.7.6c.2 0 .6 0 .8-.1s.6-.1 1-.2v2.4c-.3.1-.7.2-1.1.2-.4.1-.8.1-1.2.1-1.8.1-3-.3-3.8-1.1z"/><path d="m124.3 14c.6.2 1.1.6 1.4 1.3.3.6.5 1.4.5 2.4v5.2h-2.6l-.2-.9h-.2c-.2.3-.6.6-1 .8s-.9.2-1.4.2c-.6 0-1.1-.1-1.6-.3s-.8-.6-1-1-.3-.9-.3-1.4c0-.9.3-1.6 1-2.1.6-.5 1.6-.8 3-.9l1.3-.1c0-.3-.1-.6-.2-.8-.2-.2-.3-.3-.6-.4-.2-.1-.6-.2-1.1-.2-.4 0-.8 0-1.2.1-.5.1-.9.2-1.2.2v-2.1c.5-.2 1-.2 1.5-.2.6-.1 1-.1 1.5-.1 1-.1 1.8.1 2.4.3zm-1.7 6.8c.2-.1.4-.2.6-.3v-1.5l-1 .1c-.4 0-.7.2-.9.3-.2.2-.3.4-.3.6s.1.5.2.6.4.2.7.2z"/><path d="m128.8 21.8c-.8-.8-1.3-1.9-1.3-3.5 0-1.5.5-2.7 1.4-3.5s2.2-1.2 3.8-1.2c.8 0 1.4.1 2.1.2v2.4c-.6-.1-1.1-.2-1.6-.2-.9 0-1.4.2-1.8.5s-.6.9-.6 1.7.2 1.4.6 1.7 1 .6 1.7.6c.2 0 .6 0 .8-.1s.6-.1 1-.2v2.4c-.3.1-.7.2-1.1.2s-.8.1-1.2.1c-1.7.1-3-.3-3.8-1.1z"/><path d="m136.2 12.3c-.3-.2-.5-.6-.5-1.2 0-.5.2-.9.5-1.1s.8-.4 1.4-.4 1.1.2 1.4.4.5.6.5 1.1-.2.9-.5 1.2c-.3.2-.8.4-1.4.4-.7 0-1.2-.1-1.4-.4zm-.2 10.5v-9h3.1v9z"/><path d="m142.7 22.4c-.7-.3-1.2-.9-1.6-1.6s-.6-1.5-.6-2.6c0-1.5.4-2.7 1.2-3.5s1.9-1.2 3.4-1.2c1 0 1.8.2 2.5.6.7.3 1.2.9 1.6 1.6.3.7.6 1.5.6 2.6s-.2 1.8-.6 2.6-.9 1.2-1.6 1.6c-.7.3-1.5.6-2.5.6-1-.1-1.8-.3-2.4-.7zm3.3-2c.2-.2.4-.4.5-.7s.2-.8.2-1.4-.1-1-.2-1.4c-.1-.3-.2-.6-.5-.7-.2-.2-.5-.2-.8-.2s-.6.1-.8.2c-.2.2-.4.4-.5.7s-.2.8-.2 1.4.1 1 .2 1.4c.1.3.2.6.5.7.2.2.5.2.8.2.2.1.5 0 .8-.2zm-2.3-7.6 1.9-3.2h3.3l-2.3 3.2z"/><path d="m151.1 13.8h2.6l.2.9h.2c.3-.3.7-.6 1.1-.8.5-.2 1-.2 1.4-.2 1 0 1.8.3 2.3.9s.9 1.5.9 2.8v5.5h-3.1v-5.3c0-.5-.1-.7-.2-1-.2-.2-.5-.2-.8-.2-.2 0-.5.1-.7.2s-.5.2-.6.4v5.9h-3.1z"/><path d="m62 31.8h1.7l.2.9h.1c.3-.3.7-.6 1.1-.8s.9-.2 1.4-.2c.9 0 1.6.2 2.1.8.5.5.8 1.4.8 2.5v5.4h-2.1v-5.3c0-.6-.1-1-.3-1.2s-.6-.4-1-.4c-.3 0-.7.1-1 .2-.3.2-.6.3-.8.6v6h-2.2z"/><path d="m71.9 39.7c-.5-.5-.8-1.4-.8-2.5v-5.4h2.1v5.3c0 .6.1 1 .3 1.2s.6.4 1 .4c.3 0 .6-.1 1-.2.3-.2.6-.4.8-.6v-6h2.1v8.5h-1.7l-.2-.9h-.1c-.3.3-.7.6-1.1.8s-.9.2-1.4.2c-.8-.1-1.5-.3-2-.8z"/><path d="m87.4 36.7h-5.3c0 .6.2 1 .3 1.3s.5.6.9.7c.4.2.9.2 1.5.2s1.4-.1 2.2-.3v1.6c-.8.2-1.6.3-2.4.3-1 0-1.8-.2-2.5-.5s-1.1-.8-1.4-1.4-.5-1.5-.5-2.6c0-1 .2-1.8.5-2.4s.7-1.1 1.3-1.4 1.2-.5 2-.5c1.1 0 2 .4 2.6 1.1s.9 1.8.9 3.4zm-4.8-3.1c-.3.4-.4 1-.5 1.8h3.4c0-.9-.2-1.5-.4-1.8-.2-.4-.6-.6-1.2-.6-.7 0-1.1.2-1.3.6z"/><path d="m88.6 40.1v-1.5c.8.2 1.7.4 2.6.4.6 0 1-.1 1.4-.2.2-.2.4-.5.4-.8 0-.2-.1-.5-.2-.6-.2-.2-.4-.2-.7-.3l-1.3-.2c-.8-.2-1.4-.4-1.7-.8s-.6-.9-.6-1.6c0-.6.2-1 .4-1.4s.7-.7 1.3-.9 1.3-.3 2.1-.3 1.5.1 2.2.2v1.5c-.6-.2-1.4-.2-2.1-.2-1.3 0-1.9.3-1.9 1 0 .2.1.5.2.6.2.2.4.2.7.3l1.3.2c.8.2 1.4.4 1.7.8.4.4.6.9.6 1.6 0 .6-.2 1-.4 1.4s-.7.7-1.2.9c-.6.2-1.2.3-2 .3-1.2 0-2-.2-2.8-.4z"/><path d="m101.4 38.7v1.6c-.5.1-1 .2-1.4.2-2 0-3-1-3-3v-4h-1.4v-1.6h1.4l.3-3h1.7v3h2.4v1.6h-2.4v3.7c0 .4.1.7.2 1 .1.2.2.4.5.6.2.1.5.2.9.2 0-.3.4-.3.8-.3z"/><path d="m102.6 31.8h1.7l.2 1.1h.1c.2-.4.6-.7 1-.9s.9-.3 1.4-.3c.2 0 .5 0 .6.1v1.8c-.2 0-.5-.1-.8-.1-.4 0-.8.1-1.2.2-.4.2-.7.4-1 .7v5.8h-2.1v-8.5h.1z"/><path d="m113.6 32c.6.2 1 .6 1.2 1s.4 1.2.4 2v5.2h-1.7l-.2-.9h-.1c-.2.3-.6.6-1 .8s-.9.2-1.4.2c-.6 0-1-.1-1.4-.3s-.7-.5-1-.8c-.2-.4-.3-.8-.3-1.3 0-.8.2-1.4.8-1.8s1.4-.7 2.6-.8l1.6-.2v-.3c0-.4-.1-.8-.2-1s-.3-.4-.6-.6c-.3-.1-.7-.2-1.2-.2-.3 0-.7 0-1.1.1s-.8.2-1.2.2v-1.6c.4-.1.8-.2 1.3-.2.5-.1 1-.1 1.4-.1.8.3 1.5.4 2.1.6zm-1.2 6.8c.3-.1.6-.3.7-.6v-1.8l-1.4.2c-.6.1-1 .2-1.2.4s-.4.5-.4.9.1.6.3.9c.2.2.6.3 1 .3.4-.1.7-.1 1-.3z"/><path d="m122.5 40.3c-.6-.1-1-.2-1.4-.3v-12.3h2.1v5h.1c.2-.3.6-.6 1-.7.4-.2.8-.2 1.3-.2.6 0 1.2.2 1.7.5s.9.7 1.2 1.4c.3.6.4 1.4.4 2.4 0 1.5-.4 2.6-1.2 3.4s-1.9 1.1-3.4 1.1c-.8-.1-1.4-.2-1.8-.3zm3.5-2c.4-.5.6-1.2.6-2.2s-.2-1.7-.5-2.1-.8-.6-1.4-.6c-.3 0-.6.1-.9.2s-.6.3-.7.5v4.7c.3.1.7.2 1.2.2.7-.1 1.3-.3 1.7-.7z"/><path d="m135.2 32c.6.2 1 .6 1.2 1 .2.5.4 1.2.4 2v5.2h-1.7l-.2-.9h-.1c-.2.3-.6.6-1 .8s-.9.2-1.4.2c-.6 0-1-.1-1.4-.3s-.7-.5-1-.8c-.2-.4-.3-.8-.3-1.3 0-.8.2-1.4.8-1.8s1.4-.7 2.6-.8l1.6-.2v-.3c0-.4-.1-.8-.2-1-.2-.2-.3-.4-.6-.6-.3-.1-.7-.2-1.2-.2-.3 0-.7 0-1.1.1s-.8.2-1.2.2v-1.6c.4-.1.8-.2 1.3-.2.5-.1 1-.1 1.4-.1.9.3 1.6.4 2.1.6zm-1.2 6.8c.3-.1.6-.3.7-.6v-1.8l-1.4.2c-.6.1-1 .2-1.2.4s-.4.5-.4.9.1.6.3.9c.2.2.6.3 1 .3.4-.1.7-.1 1-.3z"/><path d="m138.8 31.8h1.7l.2.9h.1c.3-.3.7-.6 1.1-.8s.9-.2 1.4-.2c.9 0 1.6.2 2.1.8.5.5.8 1.4.8 2.5v5.4h-2.2v-5.3c0-.6-.1-1-.3-1.2s-.6-.4-1-.4c-.3 0-.7.1-1 .2s-.6.3-.8.6v6h-2.1z"/><path d="m149.3 40c-.5-.3-1-.7-1.2-1.4-.2-.6-.5-1.4-.5-2.4 0-1.5.4-2.6 1.1-3.4.8-.8 1.9-1.2 3.4-1.2.3 0 .7 0 1.1.1v-4h2.1v12.5h-1.8l-.2-.9h-.1c-.2.3-.6.6-1 .8s-.8.3-1.3.3-1.1-.1-1.6-.4zm3.2-1.4c.3-.2.6-.3.7-.6v-4.6c-.3-.1-.7-.1-1.1-.1-.8 0-1.4.2-1.8.6-.4.5-.6 1.2-.6 2.2s.2 1.7.5 2.1.8.6 1.4.6c.4-.1.6-.1.9-.2z"/><path d="m164.2 36.7h-5.3c0 .6.2 1 .3 1.3.2.3.5.6.9.7.4.2.9.2 1.5.2s1.4-.1 2.2-.3v1.6c-.8.2-1.6.3-2.4.3-1 0-1.8-.2-2.5-.5-.6-.3-1.1-.8-1.4-1.4s-.5-1.5-.5-2.6c0-1 .2-1.8.5-2.4s.7-1.1 1.3-1.4 1.2-.5 2-.5c1.1 0 2 .4 2.6 1.1s.9 1.8.9 3.4zm-4.8-3.1c-.3.4-.4 1-.5 1.8h3.4c0-.9-.2-1.5-.4-1.8-.2-.4-.6-.6-1.2-.6s-1 .2-1.3.6z"/><path d="m165.7 31.8h1.7l.2 1.1h.1c.2-.4.6-.7 1-.9s.9-.3 1.4-.3c.2 0 .5 0 .6.1v1.8c-.2 0-.5-.1-.8-.1-.4 0-.8.1-1.2.2-.4.2-.7.4-1 .7v5.8h-2.1v-8.5h.1z"/><path d="m176.7 32c.6.2 1 .6 1.2 1 .2.5.4 1.2.4 2v5.2h-1.7l-.2-.9h-.1c-.2.3-.6.6-1 .8s-.9.2-1.4.2c-.6 0-1-.1-1.4-.3s-.7-.5-1-.8c-.2-.4-.3-.8-.3-1.3 0-.8.2-1.4.8-1.8s1.4-.7 2.6-.8l1.6-.2v-.3c0-.4-.1-.8-.2-1-.2-.2-.3-.4-.6-.6-.3-.1-.7-.2-1.2-.2-.3 0-.7 0-1.1.1s-.8.2-1.2.2v-1.6c.4-.1.8-.2 1.3-.2.5-.1 1-.1 1.4-.1.9.3 1.6.4 2.1.6zm-1.2 6.8c.3-.1.6-.3.7-.6v-1.8l-1.4.2c-.6.1-1 .2-1.2.4s-.4.5-.4.9.1.6.3.9c.2.2.6.3 1 .3.5-.1.7-.1 1-.3z"/><path d="m21.6 10.3h30.1v10.2h-30.1z"/><path d="m21.6 30.2h30.1v10.2h-30.1z"/></g></svg>