<svg xmlns="http://www.w3.org/2000/svg" xmlns:xlink="http://www.w3.org/1999/xlink" width="334.667" height="43.653" viewBox="0 0 334.667 43.653">
  <defs>
    <clipPath id="clip-path">
      <rect id="Rectángulo_345" data-name="Rectángulo 345" width="334.667" height="43.653" fill="none"/>
    </clipPath>
  </defs>
  <g id="Grupo_133" data-name="Grupo 133" transform="translate(0 0)">
    <g id="Grupo_132" data-name="Grupo 132" transform="translate(0 0)" clip-path="url(#clip-path)">
      <path id="Trazado_201" data-name="Trazado 201" d="M7.33,9.744A4.36,4.36,0,0,0,9.4,8.219,4.279,4.279,0,0,0,10.114,5.7,3.939,3.939,0,0,0,8.633,2.3,7.588,7.588,0,0,0,4.146,1.2c-.518,0-1.022.015-1.51.059s-.948.089-1.377.148S.4,1.541,0,1.629V16.156H2.088V10.173c.311.015.607.044.9.059s.622.03.992.03c.207,0,.4,0,.592-.015l4.339,5.908H11.3l-4.605-6.2c.222-.074.429-.133.637-.207m-4.59-1.17c-.192-.015-.415-.03-.652-.059V3.021c.341-.059.681-.1,1.037-.133s.755-.044,1.2-.044a6.633,6.633,0,0,1,2.147.3A2.223,2.223,0,0,1,7.7,4.073a3.09,3.09,0,0,1,.4,1.658,2.523,2.523,0,0,1-.977,2.192A5.377,5.377,0,0,1,4,8.633H3.317c-.192-.03-.385-.044-.577-.059" transform="translate(0 0.577)" fill="#fff"/>
      <path id="Trazado_202" data-name="Trazado 202" d="M15.05,4.462A4.311,4.311,0,0,0,12.68,3.84a4.664,4.664,0,0,0-2.458.622A4.042,4.042,0,0,0,8.638,6.328,7.672,7.672,0,0,0,8.09,9.452a7.44,7.44,0,0,0,.592,3.228A3.788,3.788,0,0,0,10.489,14.5a6.93,6.93,0,0,0,3.006.577,9.7,9.7,0,0,0,1.451-.1,13.719,13.719,0,0,0,1.54-.326V13.006a13.7,13.7,0,0,1-1.422.311,8.111,8.111,0,0,1-1.3.1,4.962,4.962,0,0,1-2.043-.355,2.2,2.2,0,0,1-1.155-1.155,4.811,4.811,0,0,1-.355-1.836h6.841V9.482a8.513,8.513,0,0,0-.5-3.169,4,4,0,0,0-1.5-1.851M10.474,6.787a2.272,2.272,0,0,1,.859-1.17,2.4,2.4,0,0,1,1.318-.355,2.285,2.285,0,0,1,1.3.355,2.141,2.141,0,0,1,.814,1.17,6.114,6.114,0,0,1,.267,1.984H10.163a7.427,7.427,0,0,1,.311-1.984" transform="translate(3.889 1.846)" fill="#fff"/>
      <path id="Trazado_203" data-name="Trazado 203" d="M22.145,3.9a11.755,11.755,0,0,0-1.229-.059,5.731,5.731,0,0,0-4.265,1.466A5.979,5.979,0,0,0,15.2,9.674a7.08,7.08,0,0,0,.577,3.095,3.839,3.839,0,0,0,1.525,1.7A4.157,4.157,0,0,0,19.376,15a3.957,3.957,0,0,0,1.718-.355,3.527,3.527,0,0,0,1.229-.918h.1v.948a3.13,3.13,0,0,1-.8,2.428,3.73,3.73,0,0,1-2.517.711,11.269,11.269,0,0,1-1.525-.118,12.829,12.829,0,0,1-1.673-.385v1.7a13.643,13.643,0,0,0,1.658.355,13.464,13.464,0,0,0,1.673.118,5.688,5.688,0,0,0,3.954-1.2,5.133,5.133,0,0,0,1.318-3.939V4.388a7.81,7.81,0,0,0-1.125-.281A8.385,8.385,0,0,0,22.145,3.9m.281,8.277a2.654,2.654,0,0,1-1.081.814,3.292,3.292,0,0,1-1.288.267,2.92,2.92,0,0,1-1.422-.326,2.261,2.261,0,0,1-.977-1.155,5.96,5.96,0,0,1-.355-2.3,4.433,4.433,0,0,1,.874-3.065,3.344,3.344,0,0,1,2.547-.933,6.238,6.238,0,0,1,.918.059,4.747,4.747,0,0,1,.77.148v6.486Z" transform="translate(7.308 1.846)" fill="#fff"/>
      <rect id="Rectángulo_343" data-name="Rectángulo 343" width="2.088" height="10.869" transform="translate(34.65 5.849)" fill="#fff"/>
      <path id="Trazado_204" data-name="Trazado 204" d="M24.552.89a1.452,1.452,0,0,0-1.037.326,1.15,1.15,0,0,0-.355.9,1.106,1.106,0,0,0,.355.874,1.523,1.523,0,0,0,1.037.326,1.452,1.452,0,0,0,1.037-.326,1.1,1.1,0,0,0,.341-.874,1.217,1.217,0,0,0-.341-.9A1.428,1.428,0,0,0,24.552.89" transform="translate(11.134 0.428)" fill="#fff"/>
      <path id="Trazado_205" data-name="Trazado 205" d="M31.256,8.791l-1.555-.3a2.1,2.1,0,0,1-1.111-.533,1.339,1.339,0,0,1-.311-.9,1.467,1.467,0,0,1,.252-.814,1.676,1.676,0,0,1,.814-.577,4.472,4.472,0,0,1,1.57-.222,12.916,12.916,0,0,1,1.333.074,7.97,7.97,0,0,1,1.288.267V4.171a10.2,10.2,0,0,0-1.273-.252,10.809,10.809,0,0,0-1.392-.089,5.383,5.383,0,0,0-3.435.9,2.868,2.868,0,0,0-1.125,2.34,2.911,2.911,0,0,0,.652,1.955,3.758,3.758,0,0,0,2.162,1.051l1.555.311a2.28,2.28,0,0,1,1.125.5,1.322,1.322,0,0,1,.326.977,1.388,1.388,0,0,1-.577,1.185,3.243,3.243,0,0,1-1.881.415,11.034,11.034,0,0,1-1.57-.118,12.434,12.434,0,0,1-1.57-.341v1.614a12.073,12.073,0,0,0,1.525.341,11.761,11.761,0,0,0,1.644.118,5.238,5.238,0,0,0,3.287-.888,2.9,2.9,0,0,0,1.14-2.4,2.775,2.775,0,0,0-.681-2,4.263,4.263,0,0,0-2.192-1.007" transform="translate(12.649 1.841)" fill="#fff"/>
      <path id="Trazado_206" data-name="Trazado 206" d="M38.155,14.538a2.193,2.193,0,0,1-1.584-.518,2.531,2.531,0,0,1-.518-1.807v-5.3H39.3V5.224H36.052V1.3H34.32l-.355,3.924H32.01V6.912h1.955v5.642a3.724,3.724,0,0,0,.962,2.843,3.87,3.87,0,0,0,2.725.888,6.17,6.17,0,0,0,.9-.059,7.4,7.4,0,0,0,.859-.148V14.36c-.252.059-.474.089-.666.118a2.594,2.594,0,0,1-.592.059" transform="translate(15.389 0.625)" fill="#fff"/>
      <path id="Trazado_207" data-name="Trazado 207" d="M40.213,7.177a2.885,2.885,0,0,1,.814-.77,3.94,3.94,0,0,1,1.022-.459A3.855,3.855,0,0,1,43.115,5.8c.163,0,.326,0,.489.015s.326.03.489.059V3.964a3.492,3.492,0,0,0-.415-.059c-.148-.015-.3-.015-.459-.015a4.059,4.059,0,0,0-1.732.385,3.415,3.415,0,0,0-1.347,1.17h-.1l-.163-1.436H38.14V14.877h2.088v-7.7Z" transform="translate(18.336 1.87)" fill="#fff"/>
      <path id="Trazado_208" data-name="Trazado 208" d="M51.752,12.636a7.362,7.362,0,0,0,.592-3.184,7.362,7.362,0,0,0-.592-3.184,3.977,3.977,0,0,0-1.673-1.836,5.9,5.9,0,0,0-5.153,0,3.977,3.977,0,0,0-1.673,1.836,7.362,7.362,0,0,0-.592,3.184,7.362,7.362,0,0,0,.592,3.184,4.006,4.006,0,0,0,1.688,1.836,5.179,5.179,0,0,0,2.547.592,5.238,5.238,0,0,0,2.562-.592,3.889,3.889,0,0,0,1.7-1.836m-2.8.429a2.815,2.815,0,0,1-1.451.37,2.678,2.678,0,0,1-1.451-.37,2.289,2.289,0,0,1-.933-1.244,6.885,6.885,0,0,1-.326-2.384,6.849,6.849,0,0,1,.326-2.369,2.4,2.4,0,0,1,.933-1.229A2.811,2.811,0,0,1,47.5,5.484a2.714,2.714,0,0,1,1.451.37,2.265,2.265,0,0,1,.933,1.229,6.885,6.885,0,0,1,.326,2.384,6.85,6.85,0,0,1-.326,2.369,2.2,2.2,0,0,1-.933,1.229" transform="translate(20.509 1.846)" fill="#fff"/>
      <path id="Trazado_209" data-name="Trazado 209" d="M62.655,9.587V7.825H56.287V3.072h7.359V1.31H54.17V16.1h2.117V9.587Z" transform="translate(26.043 0.63)" fill="#fff"/>
      <path id="Trazado_210" data-name="Trazado 210" d="M63.364,14.511a6.93,6.93,0,0,0,3.006.577,9.7,9.7,0,0,0,1.451-.1,13.72,13.72,0,0,0,1.54-.326V13.016a13.7,13.7,0,0,1-1.422.311,8.111,8.111,0,0,1-1.3.1,4.962,4.962,0,0,1-2.043-.355,2.2,2.2,0,0,1-1.155-1.155,4.811,4.811,0,0,1-.355-1.836h6.841V9.491a8.513,8.513,0,0,0-.5-3.169A3.9,3.9,0,0,0,67.94,4.442,4.311,4.311,0,0,0,65.57,3.82a4.664,4.664,0,0,0-2.458.622,4.042,4.042,0,0,0-1.584,1.866,7.672,7.672,0,0,0-.548,3.124,7.44,7.44,0,0,0,.592,3.228,3.642,3.642,0,0,0,1.792,1.851m0-7.715a2.2,2.2,0,0,1,.859-1.17,2.4,2.4,0,0,1,1.318-.355,2.285,2.285,0,0,1,1.3.355,2.141,2.141,0,0,1,.814,1.17,6.114,6.114,0,0,1,.267,1.984H63.053A6.875,6.875,0,0,1,63.364,6.8" transform="translate(29.317 1.837)" fill="#fff"/>
      <path id="Trazado_211" data-name="Trazado 211" d="M75.395,15.375h.118l.133,1.17h1.762V.39H75.321V5.617c-.237-.03-.489-.059-.77-.089a8.039,8.039,0,0,0-.844-.03,6.738,6.738,0,0,0-3.095.652,4.293,4.293,0,0,0-1.9,1.94,7.207,7.207,0,0,0-.637,3.228,6.978,6.978,0,0,0,.592,3.139,3.876,3.876,0,0,0,1.57,1.718,4.471,4.471,0,0,0,2.177.533,3.825,3.825,0,0,0,1.732-.385,3.319,3.319,0,0,0,1.244-.948m-1.14-.681a3.147,3.147,0,0,1-2.725-.059,2.3,2.3,0,0,1-.977-1.17,6.1,6.1,0,0,1-.355-2.31,4.45,4.45,0,0,1,.874-3.08,3.418,3.418,0,0,1,2.606-.933,8.341,8.341,0,0,1,.859.044,7.783,7.783,0,0,1,.77.118v6.5a2.414,2.414,0,0,1-1.051.888" transform="translate(32.73 0.188)" fill="#fff"/>
      <path id="Trazado_212" data-name="Trazado 212" d="M81.31,15.089a9.7,9.7,0,0,0,1.451-.1,13.72,13.72,0,0,0,1.54-.326V13.016a13.7,13.7,0,0,1-1.422.311,8.111,8.111,0,0,1-1.3.1,4.962,4.962,0,0,1-2.043-.355,2.2,2.2,0,0,1-1.155-1.155,4.811,4.811,0,0,1-.355-1.836h6.841V9.491a8.513,8.513,0,0,0-.5-3.169A3.9,3.9,0,0,0,82.88,4.442,4.311,4.311,0,0,0,80.51,3.82a4.664,4.664,0,0,0-2.458.622,4.042,4.042,0,0,0-1.584,1.866,7.672,7.672,0,0,0-.548,3.124,7.44,7.44,0,0,0,.592,3.228,3.788,3.788,0,0,0,1.807,1.821,6.405,6.405,0,0,0,2.991.607M78.3,6.8a2.2,2.2,0,0,1,.859-1.17,2.4,2.4,0,0,1,1.318-.355,2.285,2.285,0,0,1,1.3.355A2.141,2.141,0,0,1,82.6,6.8a6.115,6.115,0,0,1,.267,1.984H77.993A6.875,6.875,0,0,1,78.3,6.8" transform="translate(36.499 1.837)" fill="#fff"/>
      <path id="Trazado_213" data-name="Trazado 213" d="M85.473,7.177a2.885,2.885,0,0,1,.814-.77,3.94,3.94,0,0,1,1.022-.459A3.855,3.855,0,0,1,88.375,5.8c.163,0,.326,0,.489.015s.326.03.489.059V3.964a3.491,3.491,0,0,0-.415-.059c-.148-.015-.3-.015-.459-.015a4.059,4.059,0,0,0-1.732.385A3.415,3.415,0,0,0,85.4,5.445h-.1l-.163-1.436H83.4V14.877h2.088v-7.7Z" transform="translate(40.096 1.87)" fill="#fff"/>
      <path id="Trazado_214" data-name="Trazado 214" d="M94.247,13.717h.118l.148,1.17h1.733V7.971a5.169,5.169,0,0,0-.489-2.458,2.847,2.847,0,0,0-1.466-1.288,6.935,6.935,0,0,0-2.473-.385,13.01,13.01,0,0,0-1.644.118,9.628,9.628,0,0,0-1.614.355V5.957A9.278,9.278,0,0,1,90.1,5.6a9.953,9.953,0,0,1,1.392-.1,4.859,4.859,0,0,1,1.525.207,1.558,1.558,0,0,1,.888.726,2.9,2.9,0,0,1,.3,1.422v.7l-2.266.222A5.719,5.719,0,0,0,88.8,9.778a2.8,2.8,0,0,0-.977,2.266,2.824,2.824,0,0,0,.888,2.206,3.579,3.579,0,0,0,2.473.814,4.463,4.463,0,0,0,1.732-.341,3.134,3.134,0,0,0,1.333-1.007m-3.865-.622a1.64,1.64,0,0,1-.474-1.244,1.565,1.565,0,0,1,.518-1.244,3.008,3.008,0,0,1,1.688-.563L94.2,9.837v2.577a3.07,3.07,0,0,1-1.155.874,3.331,3.331,0,0,1-1.273.267,2.066,2.066,0,0,1-1.392-.459" transform="translate(42.22 1.846)" fill="#fff"/>
      <rect id="Rectángulo_344" data-name="Rectángulo 344" width="2.088" height="16.155" transform="translate(141.176 0.577)" fill="#fff"/>
      <path id="Trazado_215" data-name="Trazado 215" d="M45.611,20.7c-.237-.03-.489-.059-.77-.089a8.038,8.038,0,0,0-.844-.03,6.738,6.738,0,0,0-3.095.652,4.293,4.293,0,0,0-1.9,1.94A7.207,7.207,0,0,0,38.37,26.4a6.978,6.978,0,0,0,.592,3.139,3.876,3.876,0,0,0,1.57,1.718,4.47,4.47,0,0,0,2.177.533,3.825,3.825,0,0,0,1.732-.385,3.528,3.528,0,0,0,1.229-.977h.118l.133,1.17h1.762V15.44H45.6V20.7Zm0,8.2a2.61,2.61,0,0,1-1.066.874,3.147,3.147,0,0,1-2.725-.059,2.3,2.3,0,0,1-.977-1.17,6.1,6.1,0,0,1-.355-2.31,4.45,4.45,0,0,1,.874-3.08,3.418,3.418,0,0,1,2.606-.933,8.341,8.341,0,0,1,.859.044,7.782,7.782,0,0,1,.77.118V28.9Z" transform="translate(18.447 7.423)" fill="#fff"/>
      <path id="Trazado_216" data-name="Trazado 216" d="M53.17,19.532A4.311,4.311,0,0,0,50.8,18.91a4.664,4.664,0,0,0-2.458.622A4.042,4.042,0,0,0,46.758,21.4a7.672,7.672,0,0,0-.548,3.124A7.44,7.44,0,0,0,46.8,27.75a3.788,3.788,0,0,0,1.807,1.821,6.93,6.93,0,0,0,3.006.577,9.7,9.7,0,0,0,1.451-.1,13.719,13.719,0,0,0,1.54-.326V28.076a13.7,13.7,0,0,1-1.422.311,8.111,8.111,0,0,1-1.3.1,4.962,4.962,0,0,1-2.043-.355,2.2,2.2,0,0,1-1.155-1.155,4.811,4.811,0,0,1-.355-1.836h6.841v-.592a8.512,8.512,0,0,0-.5-3.169,4,4,0,0,0-1.5-1.851m-4.576,2.325a2.2,2.2,0,0,1,.859-1.17,2.4,2.4,0,0,1,1.318-.355,2.285,2.285,0,0,1,1.3.355,2.141,2.141,0,0,1,.814,1.17,6.115,6.115,0,0,1,.267,1.984H48.283a7.427,7.427,0,0,1,.311-1.984" transform="translate(22.216 9.091)" fill="#fff"/>
      <path id="Trazado_217" data-name="Trazado 217" d="M59.233,24.465h6.441V22.718H59.233v-4.59h7.433V16.38H57.13V31.173h9.625V29.426H59.233Z" transform="translate(27.466 7.875)" fill="#fff"/>
      <path id="Trazado_218" data-name="Trazado 218" d="M71.445,18.969a11.756,11.756,0,0,0-1.229-.059,5.731,5.731,0,0,0-4.265,1.466A5.979,5.979,0,0,0,64.5,24.744a7.08,7.08,0,0,0,.577,3.095,3.839,3.839,0,0,0,1.525,1.7,4.157,4.157,0,0,0,2.073.533,3.957,3.957,0,0,0,1.718-.355,3.527,3.527,0,0,0,1.229-.918h.1v.948a3.131,3.131,0,0,1-.8,2.428,3.73,3.73,0,0,1-2.517.711,11.271,11.271,0,0,1-1.525-.118,12.831,12.831,0,0,1-1.673-.385v1.7a13.643,13.643,0,0,0,1.658.355,13.464,13.464,0,0,0,1.673.118,5.688,5.688,0,0,0,3.954-1.2,5.133,5.133,0,0,0,1.318-3.939V19.458a7.81,7.81,0,0,0-1.125-.281,8.385,8.385,0,0,0-1.244-.207m.281,8.292a2.654,2.654,0,0,1-1.081.814,3.292,3.292,0,0,1-1.288.267,3.02,3.02,0,0,1-1.436-.326,2.26,2.26,0,0,1-.977-1.155,5.96,5.96,0,0,1-.355-2.3,4.433,4.433,0,0,1,.874-3.065,3.344,3.344,0,0,1,2.547-.933,6.238,6.238,0,0,1,.918.059,4.747,4.747,0,0,1,.77.148v6.486Z" transform="translate(31.009 9.091)" fill="#fff"/>
      <path id="Trazado_219" data-name="Trazado 219" d="M77.789,18.94a4.059,4.059,0,0,0-1.732.385,3.415,3.415,0,0,0-1.348,1.17h-.1l-.163-1.436H72.71V29.927H74.8V22.242a2.885,2.885,0,0,1,.814-.77,3.94,3.94,0,0,1,1.022-.459,3.855,3.855,0,0,1,1.066-.148c.163,0,.326,0,.489.015s.326.03.489.059v-1.91a3.492,3.492,0,0,0-.415-.059c-.163-.015-.311-.03-.474-.03" transform="translate(34.956 9.106)" fill="#fff"/>
      <path id="Trazado_220" data-name="Trazado 220" d="M84.21,19.532a4.311,4.311,0,0,0-2.369-.622,4.664,4.664,0,0,0-2.458.622A4.042,4.042,0,0,0,77.8,21.4a7.672,7.672,0,0,0-.548,3.124,7.664,7.664,0,0,0,.592,3.228,3.788,3.788,0,0,0,1.807,1.821,6.93,6.93,0,0,0,3.006.577,9.7,9.7,0,0,0,1.451-.1,13.719,13.719,0,0,0,1.54-.326V28.076a13.7,13.7,0,0,1-1.422.311,8.111,8.111,0,0,1-1.3.1,4.962,4.962,0,0,1-2.043-.355,2.2,2.2,0,0,1-1.155-1.155,4.811,4.811,0,0,1-.355-1.836h6.841v-.592a8.513,8.513,0,0,0-.5-3.169,4.1,4.1,0,0,0-1.5-1.851m-4.576,2.325a2.272,2.272,0,0,1,.859-1.17,2.4,2.4,0,0,1,1.318-.355,2.285,2.285,0,0,1,1.3.355,2.141,2.141,0,0,1,.814,1.17,6.115,6.115,0,0,1,.267,1.984H79.323a6.874,6.874,0,0,1,.311-1.984" transform="translate(37.139 9.091)" fill="#fff"/>
      <path id="Trazado_221" data-name="Trazado 221" d="M89.266,23.861l-1.555-.3a2.1,2.1,0,0,1-1.111-.533,1.339,1.339,0,0,1-.311-.9,1.359,1.359,0,0,1,.252-.814,1.676,1.676,0,0,1,.814-.577,4.472,4.472,0,0,1,1.57-.222,12.916,12.916,0,0,1,1.333.074,7.969,7.969,0,0,1,1.288.267V19.241a10.2,10.2,0,0,0-1.273-.252,10.809,10.809,0,0,0-1.392-.089,5.383,5.383,0,0,0-3.435.9,2.868,2.868,0,0,0-1.125,2.34,2.911,2.911,0,0,0,.652,1.955,3.758,3.758,0,0,0,2.162,1.051l1.555.311a2.28,2.28,0,0,1,1.125.5,1.322,1.322,0,0,1,.326.977,1.388,1.388,0,0,1-.577,1.185,3.243,3.243,0,0,1-1.881.415,11.035,11.035,0,0,1-1.57-.118,12.434,12.434,0,0,1-1.57-.341v1.614a12.073,12.073,0,0,0,1.525.341,11.761,11.761,0,0,0,1.644.118A5.238,5.238,0,0,0,91,29.265a2.9,2.9,0,0,0,1.14-2.4,2.775,2.775,0,0,0-.681-2,4.263,4.263,0,0,0-2.192-1.007" transform="translate(40.538 9.086)" fill="#fff"/>
      <path id="Trazado_222" data-name="Trazado 222" d="M98.009,19.512a5.9,5.9,0,0,0-5.153,0,3.977,3.977,0,0,0-1.673,1.836,7.362,7.362,0,0,0-.592,3.184,7.588,7.588,0,0,0,.592,3.184,4.006,4.006,0,0,0,1.688,1.836,5.179,5.179,0,0,0,2.547.592,5.238,5.238,0,0,0,2.562-.592A4.043,4.043,0,0,0,99.667,27.7a7.363,7.363,0,0,0,.592-3.184,7.363,7.363,0,0,0-.592-3.184,3.907,3.907,0,0,0-1.658-1.821M97.816,26.9a2.336,2.336,0,0,1-.933,1.229,2.815,2.815,0,0,1-1.451.37,2.678,2.678,0,0,1-1.451-.37,2.289,2.289,0,0,1-.933-1.244,6.885,6.885,0,0,1-.326-2.384,6.849,6.849,0,0,1,.326-2.369,2.4,2.4,0,0,1,.933-1.229,2.811,2.811,0,0,1,1.451-.355,2.713,2.713,0,0,1,1.451.37,2.265,2.265,0,0,1,.933,1.229,6.885,6.885,0,0,1,.326,2.384,6.46,6.46,0,0,1-.326,2.369" transform="translate(43.552 9.096)" fill="#fff"/>
      <path id="Trazado_223" data-name="Trazado 223" d="M172.239,23.62a11.282,11.282,0,0,0,5.36-3.983,10.973,10.973,0,0,0,1.881-6.56q0-6.064-3.983-8.929c-2.665-1.91-6.619-2.858-11.89-2.858-1.348,0-2.7.059-4.043.163s-2.636.252-3.894.444-2.443.415-3.539.652V38.4h7.907V24.819c.652.03,1.273.059,1.881.089s1.273.044,2.014.044a3.744,3.744,0,0,0,.415-.015L173.72,38.4h8.8l-10.41-14.748a.55.55,0,0,0,.133-.03m-10.854-4.753c-.415-.044-.874-.074-1.348-.118V7.6a18.118,18.118,0,0,1,2.058-.3c.711-.059,1.481-.1,2.325-.1a12.058,12.058,0,0,1,4.205.622A4.693,4.693,0,0,1,171.1,9.745a6.172,6.172,0,0,1,.814,3.332,5.167,5.167,0,0,1-1.94,4.487c-1.288.918-3.258,1.392-5.923,1.392-.489,0-.962,0-1.407-.015a11.957,11.957,0,0,1-1.259-.074" transform="translate(73.138 0.62)" fill="#fff"/>
      <path id="Trazado_224" data-name="Trazado 224" d="M192.067,9.389A12.1,12.1,0,0,0,185.6,7.76a13.461,13.461,0,0,0-6.826,1.614,10.351,10.351,0,0,0-4.279,4.738,17.84,17.84,0,0,0-1.481,7.611,17.68,17.68,0,0,0,1.6,8.055,9.751,9.751,0,0,0,4.9,4.59,20.722,20.722,0,0,0,8.4,1.466,37.484,37.484,0,0,0,3.85-.207,31.831,31.831,0,0,0,4.1-.711V28.994c-1.17.267-2.34.474-3.509.637a24.147,24.147,0,0,1-3.332.237,14.442,14.442,0,0,1-4.9-.652,4.284,4.284,0,0,1-2.5-2.117,7.936,7.936,0,0,1-.7-3.065h16.451V21.975a20,20,0,0,0-1.333-7.774,9.981,9.981,0,0,0-3.968-4.812m-9.077,4.057a4.558,4.558,0,0,1,2.547-.666,4.389,4.389,0,0,1,2.488.666,4.016,4.016,0,0,1,1.5,2.251,14.128,14.128,0,0,1,.489,3.791H180.9a12.955,12.955,0,0,1,.533-3.806,4.02,4.02,0,0,1,1.555-2.236" transform="translate(83.177 3.731)" fill="#fff"/>
      <path id="Trazado_225" data-name="Trazado 225" d="M157.834,39.181h10.839l-13.8-13.8A16.216,16.216,0,0,0,142.967.059V.044H142.7c-.4-.03-.814-.044-1.229-.044s-.814.015-1.229.044H103.86V39.137h39.092V32.384a16.358,16.358,0,0,0,6.2-1.866Zm-7.744-22.967A8.625,8.625,0,1,1,141.471,7.6a8.626,8.626,0,0,1,8.618,8.618M111.53,31.466V7.685h16.125A16.218,16.218,0,0,0,135.3,31.229v.237Z" transform="translate(49.932 0)" fill="#88c517"/>
      <path id="Trazado_226" data-name="Trazado 226" d="M233.375,31.827H218.642V22.735h11.846V16.294H218.642V8.031h14.734V1.59H210.69V38.268h22.685Z" transform="translate(101.292 0.764)" fill="#fff"/>
      <path id="Trazado_227" data-name="Trazado 227" d="M213.756,17.079H200.7V8.165h15.089V1.59H192.64V38.268H200.7V23.653h13.06Z" transform="translate(92.614 0.764)" fill="#fff"/>
    </g>
  </g>
</svg>
